<mxfile host="Electron" modified="2024-06-15T10:08:20.460Z" agent="Mozilla/5.0 (X11; Linux x86_64) AppleWebKit/537.36 (KHTML, like Gecko) draw.io/24.5.3 Chrome/124.0.6367.207 Electron/30.0.6 Safari/537.36" etag="_vZKwuarRGyBbPTVSI1b" version="24.5.3" type="device">
  <diagram name="Page-1" id="db5BMCELJGL6YaWxa1is">
    <mxGraphModel dx="1595" dy="1903" grid="0" gridSize="10" guides="1" tooltips="1" connect="1" arrows="1" fold="1" page="0" pageScale="1" pageWidth="850" pageHeight="1100" math="0" shadow="0">
      <root>
        <mxCell id="0" />
        <mxCell id="1" parent="0" />
        <mxCell id="kZUnEmiP9228XyHGgyE8-1" value="&lt;b&gt;LOAD&lt;/b&gt;" style="ellipse;whiteSpace=wrap;html=1;" parent="1" vertex="1">
          <mxGeometry x="52" y="14" width="120" height="80" as="geometry" />
        </mxCell>
        <mxCell id="kZUnEmiP9228XyHGgyE8-2" value="image" style="ellipse;whiteSpace=wrap;html=1;" parent="1" vertex="1">
          <mxGeometry x="-24" y="148" width="120" height="80" as="geometry" />
        </mxCell>
        <mxCell id="kZUnEmiP9228XyHGgyE8-3" value="&quot;Images/ESRG.png&quot;" style="ellipse;whiteSpace=wrap;html=1;" parent="1" vertex="1">
          <mxGeometry x="126" y="148" width="120" height="80" as="geometry" />
        </mxCell>
        <mxCell id="kZUnEmiP9228XyHGgyE8-5" value="" style="endArrow=classic;html=1;rounded=0;exitX=0.5;exitY=1;exitDx=0;exitDy=0;entryX=0.5;entryY=0;entryDx=0;entryDy=0;" parent="1" source="kZUnEmiP9228XyHGgyE8-1" target="kZUnEmiP9228XyHGgyE8-2" edge="1">
          <mxGeometry width="50" height="50" relative="1" as="geometry">
            <mxPoint x="201" y="240" as="sourcePoint" />
            <mxPoint x="251" y="190" as="targetPoint" />
          </mxGeometry>
        </mxCell>
        <mxCell id="kZUnEmiP9228XyHGgyE8-6" value="" style="endArrow=classic;html=1;rounded=0;exitX=0.5;exitY=1;exitDx=0;exitDy=0;entryX=0.5;entryY=0;entryDx=0;entryDy=0;" parent="1" source="kZUnEmiP9228XyHGgyE8-1" target="kZUnEmiP9228XyHGgyE8-3" edge="1">
          <mxGeometry width="50" height="50" relative="1" as="geometry">
            <mxPoint x="80" y="92" as="sourcePoint" />
            <mxPoint x="2" y="123" as="targetPoint" />
          </mxGeometry>
        </mxCell>
        <mxCell id="kZUnEmiP9228XyHGgyE8-7" value="&lt;b&gt;RESIZE&lt;/b&gt;" style="ellipse;whiteSpace=wrap;html=1;" parent="1" vertex="1">
          <mxGeometry x="395" y="14" width="120" height="80" as="geometry" />
        </mxCell>
        <mxCell id="kZUnEmiP9228XyHGgyE8-8" value="image" style="ellipse;whiteSpace=wrap;html=1;" parent="1" vertex="1">
          <mxGeometry x="319" y="148" width="120" height="80" as="geometry" />
        </mxCell>
        <mxCell id="kZUnEmiP9228XyHGgyE8-9" value="size" style="ellipse;whiteSpace=wrap;html=1;" parent="1" vertex="1">
          <mxGeometry x="469" y="148" width="120" height="80" as="geometry" />
        </mxCell>
        <mxCell id="kZUnEmiP9228XyHGgyE8-10" value="" style="endArrow=classic;html=1;rounded=0;exitX=0.5;exitY=1;exitDx=0;exitDy=0;entryX=0.5;entryY=0;entryDx=0;entryDy=0;" parent="1" source="kZUnEmiP9228XyHGgyE8-7" target="kZUnEmiP9228XyHGgyE8-8" edge="1">
          <mxGeometry width="50" height="50" relative="1" as="geometry">
            <mxPoint x="544" y="240" as="sourcePoint" />
            <mxPoint x="594" y="190" as="targetPoint" />
          </mxGeometry>
        </mxCell>
        <mxCell id="kZUnEmiP9228XyHGgyE8-11" value="" style="endArrow=classic;html=1;rounded=0;exitX=0.5;exitY=1;exitDx=0;exitDy=0;entryX=0.5;entryY=0;entryDx=0;entryDy=0;" parent="1" source="kZUnEmiP9228XyHGgyE8-7" target="kZUnEmiP9228XyHGgyE8-9" edge="1">
          <mxGeometry width="50" height="50" relative="1" as="geometry">
            <mxPoint x="423" y="92" as="sourcePoint" />
            <mxPoint x="345" y="123" as="targetPoint" />
          </mxGeometry>
        </mxCell>
        <mxCell id="kZUnEmiP9228XyHGgyE8-12" value="width" style="ellipse;whiteSpace=wrap;html=1;" parent="1" vertex="1">
          <mxGeometry x="394" y="282" width="120" height="80" as="geometry" />
        </mxCell>
        <mxCell id="kZUnEmiP9228XyHGgyE8-13" value="height" style="ellipse;whiteSpace=wrap;html=1;" parent="1" vertex="1">
          <mxGeometry x="544" y="282" width="120" height="80" as="geometry" />
        </mxCell>
        <mxCell id="kZUnEmiP9228XyHGgyE8-14" value="" style="endArrow=classic;html=1;rounded=0;exitX=0.5;exitY=1;exitDx=0;exitDy=0;entryX=0.5;entryY=0;entryDx=0;entryDy=0;" parent="1" target="kZUnEmiP9228XyHGgyE8-12" edge="1">
          <mxGeometry width="50" height="50" relative="1" as="geometry">
            <mxPoint x="530" y="228" as="sourcePoint" />
            <mxPoint x="669" y="324" as="targetPoint" />
          </mxGeometry>
        </mxCell>
        <mxCell id="kZUnEmiP9228XyHGgyE8-15" value="" style="endArrow=classic;html=1;rounded=0;exitX=0.5;exitY=1;exitDx=0;exitDy=0;entryX=0.5;entryY=0;entryDx=0;entryDy=0;" parent="1" target="kZUnEmiP9228XyHGgyE8-13" edge="1">
          <mxGeometry width="50" height="50" relative="1" as="geometry">
            <mxPoint x="530" y="228" as="sourcePoint" />
            <mxPoint x="420" y="257" as="targetPoint" />
          </mxGeometry>
        </mxCell>
        <mxCell id="kZUnEmiP9228XyHGgyE8-16" value="&lt;b&gt;SHOW&lt;/b&gt;" style="ellipse;whiteSpace=wrap;html=1;" parent="1" vertex="1">
          <mxGeometry x="719" y="14" width="120" height="80" as="geometry" />
        </mxCell>
        <mxCell id="kZUnEmiP9228XyHGgyE8-17" value="image" style="ellipse;whiteSpace=wrap;html=1;" parent="1" vertex="1">
          <mxGeometry x="719" y="148" width="120" height="80" as="geometry" />
        </mxCell>
        <mxCell id="kZUnEmiP9228XyHGgyE8-19" value="" style="endArrow=classic;html=1;rounded=0;exitX=0.5;exitY=1;exitDx=0;exitDy=0;entryX=0.5;entryY=0;entryDx=0;entryDy=0;" parent="1" source="kZUnEmiP9228XyHGgyE8-16" target="kZUnEmiP9228XyHGgyE8-17" edge="1">
          <mxGeometry width="50" height="50" relative="1" as="geometry">
            <mxPoint x="868" y="240" as="sourcePoint" />
            <mxPoint x="918" y="190" as="targetPoint" />
          </mxGeometry>
        </mxCell>
        <mxCell id="2qJ_zD_mH2lqqATOmTnX-1" value="" style="shape=image;aspect=fixed;image=data:image/png,iVBORw0KGgoAAAANSUhEUgAAA4oAAAJaCAYAAABpxLljAAAAAXNSR0IArs4c6QAAAARnQU1BAACxjwv8YQUAAAAJcEhZcwAAEnQAABJ0Ad5mH3gAAIRySURBVHhe7d0PXFzVgff/L1G7ZNfWxOru0OqaSZN9Ck3akG13M7RWM2ncBhq3QuP+Av5pQuw+CanbFchWIba/BHSbgP4eBd1qUKtCulpIq4W0WiZu04V0dSFdXbAmMumjLbRJC7u6hTYx93funTswdxgIJEBC8nm/HO/MmTt37lzC4X7n3HNOkmUIAAAAAADXDHcJAAAAAICDoAgAAAAA8CAoAgAAAAA8CIoAAAAAAA+CIgAAAADAg6AIAAAAAPAgKAIAAAAAPAiKAAAAAAAPgiIAAAAAwIOgCAAAAADwICgCAAAAADwIigAAAAAAD4IiAAAAAMCDoAgAAAAA8CAoAgAAAAA8CIoAAAAAAA+CIgAAAADAg6AIAAAAAPAgKAIAAAAAPAiKAAAAAAAPgiIAAAAAwIOgCAAAAADwICgCAAAAADwIigAAAAAAD4IiAAAAAMCDoAgAAAAA8CAoAgAAAAA8CIoAAAAAAA+CIgAAAADAg6AIAAAAAPAgKAIAAAAAPAiKAAAAAAAPgiIAAAAAwIOgCAAAAADwICgCAAAAADwIigAAAAAAD4IiAAAAAMCDoAgAAAAA8CAoAgAAAAA8CIoAAAAAAA+CIgAAAADAg6AIAAAAAPAgKAIAAAAAPAiKAAAAAAAPgiIAAAAAwIOgCAAAAADwICgCAAAAADwIigAAAAAAD4IiAAAAAMCDoAgAAAAA8CAoAgAAAAA8CIoAAAAAAA+CIgAAAADAg6AIAAAAAPAgKAIAAAAAPJIsw70PADhD/P73v9ePf/xjdXZ26s0339Tbb78tqmuc7c4//3xdfPHF8vv9+shHPqLU1FT3GQDAVCMoAsAZpLa2Vv/8z/+sxsZGHT9+3C0Fzk1/+qd/qs9+9rPKy8vTX/zFX7ilAICpQFAEgDPAP/3TP2nbtm0Kh8PO4w984AP65Cc/qUWLFumKK67QRRddpKSkJOc54Gx19OhRHT58WK+99ppefPFFNTc3a2BgwHlu5cqVuuOOO7RkyRLnMQBgchEUAeA0evnll3XrrbfqhRdecB6vXbvWuX384x93HgPnMjs41tXV6etf/7paW1udsi9/+cu6++67nfsAgMlDUASA0+Tpp5/WDTfc4PRHvO6667R161Z96EMfcp8FEOvJJ5/U7bff7vTZXb58uXOZ9qWXXuo+CwCYaARFADgNHn30Uafl0HbvvffqS1/6knMfwMh6e3t1yy23qL6+3hnsxu7L+/73v999FgAwkQiKADDFvvOd7zgDdNjsE97s7GznPoCx2bBhgx588EGnv+IPf/hDXXDBBe4zAICJQlAEgClkD1aTnp6u//qv/9JTTz2lVatWuc8AGI81a9boscce0+c//3mnhR4AMLGYcB8AptBtt93mhMTy8nJCInAK7HBoT5lhh0W7vyIAYGLRoggAU8S+zPRzn/ucrr76au3Zs8ctBXCyWlpanBGC586dq9dff90tBQBMBFoUAWCK3HPPPc7yK1/5irMEcGoyMjL0t3/7t+rq6lJ1dbVbCgCYCLQoAsAU2Lt3rzOB/qc//Wnt3r3bLQVwql599VWlpqZq0aJFam9vd0sBAKeKFkUAmAINDQ3O8sYbb3SWACbGBz/4QecLmP3796utrc0tBQCcKoIiAEyB73//+84yOi0GgInzmc98xln+4Ac/cJYAgFNHUASASfbrX/9anZ2dCgQC+sM//EO3FMBEueqqq5zlv/3bvzlLAMCpIygCwCR77bXXnOWHPvQhZwlgYi1YsEDnn3++84UMAGBiEBQBYJL19PQ4y/e///3OEsDEe9/73qfu7m73EQDgVBEUAWCS/fa3v3WWf/RHf+QsAUw8+/frf/7nf9xHAIBTRVAEAAAAAHgQFAEAAAAAHgRFAAAAAIDHNAyKPaq7PklJSWO8bW11Xzd99ezMcT5L+T63wDXwap2Krk1TivtZ0+5tH3HdM0dYTZuyNHd+htZtb1K4zxT1NWnjadrn6PHK2RkZbAQAAADANG9R9C8JKrj8BLdZye7aZ5mBkMqW5qny2QEtXl+iim0VKgz43SfPXOFHNypre6d8l/ep0Q6MqWnKuDJf1cqW/zJ3JQAAAACn1bQOivn3Nqv5uRPcvpjurj19+VbXy7IslSxxC2xvhtVqN4IV71D9A2UqLC5U/pJZidc9Y/SofU+TtLlWLaEOdb5cq8L0AbUema38pyqUS1AEAAAAzgj0UZwMJqhNuiM9CtnLd8/U9Gkz9Sn7cUvWloDzaNaCXFU0dcnq7tCOVWd+aygAAABwrjjngmLfKw0qX7tMaSluH8b5GcrZUK2mQwPuGhGRvms5qntzQJ27ypW3MMVZP2VhljbeH1LPMXfFWCYg/qKlVuX5H9fcpBmaMeN9+lBwnSpCo0wA3BNS9YYcZcyP7E/KwmVat927fW+/w1aV2/sdKHWe050Zkc9xfZ3sBsaR+yj2OZ9jXTDap3GuMq4vUt0rdifBOO4+LXM/c1JSitLM5yjf1Wm2kshUb3ujqveMs0/hMROst68bPM5zM83+ver9mcfr2Vdn/q1kmJ/l0H5Wjvd9AQAAgGnonAqKA/vKlbkwR6V7kxW8pSLSr+9Kqf3BjcryB1W5310xRsej+QpmV6l9YZ5Zv0RZl7ap+tZlSr+mXK1vuys5BtT+/31Gf/7xG7T5e/+ljE3btf1ruVp0pEmbPvV+ZWxp0W/jWhr7W8uUkbJMGx9sl64sdLafc3lYNZuWKeXK+O1H+ZRu9rtifWbk4YoC53NUrPCP0rIYVt1NqUrLLlXjYb9yNpv1iwPq21tpAnCq8naG3fUix8jZJxPcfCuKItsuztKsN2pUmp2mzLvbzSeNNYnbfrtTNYPbTleevf7mTM1ur9bGYIoytrbG7csI3jbh+soULdtUo575BSox28me1aTC1KAKdyeKp+ZneW+W0gN5KjXPB4rN+27LU/rhRhWN530BAACA6cqadrqt2lWyE5dV1uoWjUmXtWO5eZ2v0Gp+yy1y9T9XaPkXBK3MB9rcEvMuddnOe0gBq+S5XrfU1mu1bAk4zwXuGVrfhD4r3V5/SYnVfNgtNI4ff9168kaflZSUYhV859fmsVv+2x9YJT5ZSSl51o7O/kiho39o+/d1OCXRffF8XvN+zv5taXELIhKt2/VIZmR7tzebvY8RrrVyzT7IV2A1Ok+0WRWL7Me5Vm3YWWPIWy1Wif2czPGL2d3J23a/1XaXexzMZ/Rs+60Oa4c5piY0WwXPeJ5JwD6e6c52sh/oMI+G9O4tswKm3HmurtstHflnaf8bqh3z+wJDnnzySeff2bZt29wSABMtNTXVete73uU+AgCcqmndolgaiFxGOPKtXEOTY/So53mz8KVo9oWRkqjk5RXqerlZjeuHD3zju71MpctnuY9ssxQoLpMJeWrd1uRuv09ND5WqXT6V3FWq4CVOocO+VDK3okprzPs/8PVdOpQUKf+v5m/rH3+VpODmEuV/MLYtMNnZfuG8gGa+3K6h9riT1a6G+5rMskCldwTN3seYk6uyLZlKTe1U56vm8f4WhWanyr9ho3LnRFYZdKFfafPtO2H1HHFKjEncdl9INXeYo7uoTJXFAe+2L0xV/p1lyjTHtPr++tGP0UCL6u9sN9upUOn6VE+r66xPFKrsdvOD9Bj5Zyn5lXtPtfLt933wBO8LAAAATGPTOiieeHqMWTHBIFXpXzShYH+RMu2+Zjub1B7XLzGR/Mzg8Es6kzMUvNEse0LqOGiWA21qedR+Il9ZS4dfAJr0x4u19K/Nne/tUbvTxc1SR1uVLOtPdPWf/6/hY98kB1VxoEXND+WaaHKK3uxUi31J7Y1BLY4LyDb/LY3qCDWr0B4ldVGBGkMd6tocMJ+pT309nWrd06S6+0u18fpslT4dec2gydz2wXbV28uVQQWGH1JpXlB515nl8yH3mI7glVbV2suVGRr+NUCyFgdy3PuuE/wsdUm6gvb77j7B+wIAAADT2LQOiieeHqMgJhzMUuZdDU5fvp49NSrKzdJi/0xnMJt1m2rUdDBRX7VspSWcsiFZM99tL0ORFrAjPZHWpQ92qn57pSqH3Rq073eWrOO1evWQiYlWt8IvJ8lK+rjmvs/8CNxWxknxZlgN9nJ+iuLbzhI60qrK3DSlzJyt2SlpyghmKe/WGoWOzJZ/kbtO1CRuu6+72xmcJ3v+SFs27znPXvaoN2FfTtcxew0peHni7cy6NMW95xrDz7LF+X6hTp3mZwkAAACcjc6pwWx0YUCFTV3qD7eo9j573kG/dLBVNdvXKWu+d+CVQee7y7F4tUGVm4pUlOBWvTuyit14mJQ0dNjtjDh6TjQBM77FcbIcadLGhRkq2jmgDHt+xlCbunp71X+0Wx2hGuU7l4eepEnb9izNHM/PaKzG8LMEAAAAzlbnVlB0Jc8JKPeLFdrR2iWrv1stjxQooB7V3VajkOdq1AaF33TvevSp15nxIiif3YftEl/kEtHratVlUp01yi0yEb5Pc1PN4+P/qvAYL1+0+1yeFJ9f2fbyQKSFbjThXZWqNisFH2hU/bZ8ZS9Nl3/WLCWPFMQmcduzUiKtlA0HRtpyt8LOKLXJSk50aWqU2b69ndAbI2znWL97xzXunyUAAABw9jl3guKrNcq7JkNzN4W8Uxsk+xRYU6iNdr+zns6YgVoi6ve2u/di2P3Ydpnlokwtti9/TE7T4lVmuSuk9rjXjyQ1Pd/8v0fNL3ZGCmJYVpd2XDNXn/irSrX83i08WXNSlWFf1vlESG0JLtEceL4oMnfjzrB6epwp/BVMT3WWHkdaFIrvRziZ256XLqf34LMhtSbqSnowpAZ7cKJFi+Uf7brXBQHl288/3Bj3JUBEe6s9GE+Mk/hZAgAAAGebcycofnCxFh9uVXh7tWrj+5YdalW9E/wylBrXJ7H9ngrVeCZm71Pr9lKV90jZm/LcPpA+Zd9SaP5fo4Lb6hSOn4z/UJ3yUpI0N1CqkBuoZi3PVaEJMKEtZaqL2R/LOq7fNFRq8w8OKfxRs8/vkpJmJMn852G3aI1NurI32HMuVqvs3laz9zHeblf1vZXqeSVZgY/55fMFneL6prh5Ao+FVXdbgfl08SZx27OCyr8rIO0vVeH2+G13qmZLqZrMEc+9I/ozGEFyUDmbzHZ6ylUatx17XseCTfFfBIz/ZwkAAACcdUzgmGaG5lH0LwlaweUnulVZ0dkO7fnxIvPm+a3M9SVWxbYKq6I410q15/tTwCprHZplLzofYWCJPZdfdP1CK3eBPY+eee819VaXu25Ev9VyV9Ay2c/SvICVX2y2bbZfuCZg+d33zH8q7hUJ9qdwdaqzjRkZ5VarPd/j8ePWz2uvs5KSkqyt//rO0DyMLVstmbKkMcyjODT/nyzfglyr0P7cmwuszHn2e/us3Dp3v96oj8x9aNbzryiwSmKOj29piVW1OTi12x6cLzHRthPM3Tii4ftYsj7T+blEfr7eeRRP5mcJjIZ5FIHJxzyKADCxpnVQHNutzIqNUr0v11tla4JuODQ3EwSy11dZjeHYqdhjAtfeXqujrtDKjAbEJflWWUPHiAGlO1RlFayKBoqY7R8Y4RXdzVaVCS3R/fEtCFr52xqtLjsk2pygmG0lzZhhle9zy2z7yscRFG3mczSUWflL/JH9MmEnsKrQ2vFi3H6Z/akYDETu561rsbqPmvj0XKFTFnwoPiRNwbaXRgJ0ZNsFVlUoNtiNRa/V9sjQz9G3INMquK/FmXTffuwNihHj/lkCIyAoApOPoAgAEyvJ/p85gUGcnp05SsltkAlcZ+ygJc6PLilpUmfXGJf9lVqcHlZZb5UyPTPkA+e22tpa3XDDDTJBUcXFxW4pgImUlpam119/Xb/73e/cEgDAqTgnRz09W9gjoZ4xIdEIv9ikdjWp+q46ddJ/DwAAAJi2CIqYMP5bmmWFS5S8PU/Be1vdUgAAAADTDUERE2BAPS+FFNrTpLqHGtRiSuw5EgEAAABMTwTFEfhW1zt9AJlUfSz61HLfMi0LZinv0bCCW5pV+8UE8yUCAAAAmBYIipgAPmU/7oygK6u7Q7Wbg/K7zwAAAACYfgiKAAAAAAAPgiIAAAAAwIOgCAAAAADwICieQ5w+hPbNfQwAAAAAiRAUzyaH6pRjT8I/wm3GjBn6QMYq3Xp/SN1H3dcAGJMXXnjBvYczV4/qrk9c/w27XV9n1jbedOvN6GMAAOAgKJ5N3uxQg3t3JOF99aq6dZk+uq6BkyJgHB577DEtXbqUwDgt+JS6NKjg8lFulzHXKwAAoyEonkXCna3OMruue+gyU8+tX72d9c7ckL94vEy1+53VAYzBV7/6VSck2mGRwHimy1Dp481qfm6U2z2ZJk4CAICREBTPGgMKHwiZpU+L5490+pOsWR/MVv6GbHO/XS2dw9sU7UAZuwQQMWfOHN18883OfQIjAAA42xEUxy3aByZHdW+6RTF6duY4/V9ydg6FsNat9vrlalWf2h/dqKyFKc46KQuzVLSz00Q84+1ONWxdp4z59ropSru2SHWv9DmvH5tOtT9vL4NKvcwpGNlAZLspFyY7ywizbzvLtS7wAWffZpz3AWX8zRdV/aNeExrdVRyWup/K04wZ71P5S+bhoQYVZc51XrN4e3tklb5O1W3KcT+Luc3P0LqtDepM9HGO9Sh0/0blBCLbSEpJ07K1lQolui62p0F59nG727zPsbAaNmVprv2a9EoTe4HJZ7cqxiIwnuV6WlU3WC/bdfYyrdseUs8x93lHeLBfZM4TYbcsqk9NG+z6PkV5O+OfAxAveuUGgDOEhXHqtmpX2QOHZlu1b7hFMbrrsu1YZWXXdbslltWyJbJ+/hq/JV+qlVtcYVVszreCPrvcZ+U+VGuVLZHlW5BrFW6rsErWZ1p+O5Ep09pxwN3IifQ2WgX2axZVWG1uUUK9zVbJInvb+Vb9YbfM6rJqb/Q5+x29mZMe95Zi5dV1uetFtH7lPFOea9W2PGnlOp/Bvrn7+laL81litzV4W1JmtbwV2YYjbPZ5pHUVsMpa+90VXXtLnOdy61o8+5v5iHf/gMl08803D/7bi79dffXV1mOPPeauOeTJJ590nt+2bZtbgskxev2c0Bu1Vrb981tVa149pL+9wsp06+jU1YVWhambC1enWj573WF1mbsNX65VH/O+3U/lOuv7bqw1tSwmW2pqqvWud73LfYTpaM+ePYN1qX0fwOlFUBy3kw2K7slFr1toMyci6Xa5uaVvbrZin+p6PLKd9HtGjX1DXiyLnMCsb/RsJ6q/t9vqaKqwsudF3i9wV5sVjWFt9wQiZV+stdoGw2O/1d1UYgWUZM1IrxwMn8ePH7Tqcs6zZnxwhZUZmGute7TN6j3qPmkdH/z8gdsbre7oGxxus2q/GHmP9G3ulvrbIoHSF7QKH2mxuqInXUf7rS7nfc1zK3Z4Tq4ixyTVylwRsPxrdsTsKzB1wuGw8295tNucOXM8gZGgOFUmKCj2t1hlzhdqAavkOW+N2lXnhr+4ujZaZw+Wv1Ef+SItLjxi8hAUzw5XXXWV87tk3wiMZ4GjXVb931eN3ohxItF6ekuLW4CpkmT/z/wyYszsS09TlPd0tmrfqFdu3GWe9qWnKbkNzoAy9asjfQXtS08z7jSnLjFlEa0qT8pQqYLacaBZ+fPcYtvBGi2bv06hLS2yNpvYdAI9T+cp5fo699HoAl9sVO19mfLbDwZCKvUvU3n6DnU15UfKBkX3r0ytVonsXGf9tllFf7Rc9ybN0Gcf/amevukDOi8pyV3fUsuWGfr4V5NU8sPjKvuEW2w70qB1l+aoZlWtup/KVf/DWZr7hV6VtYZUsiT2EtiI1jvNMdsae4wHFNo0U8u2m7tmG11mG959PbMdOHBAb731lvsI091XvvIVffe733Ufjczu12hfSnX++efrhhtukAmKKi4udp/FxIvWz+7DkcTWq/b0GJfnqcGtm+waum/XOs3OrpHv9maF7wrKW0P1qWHtbOU8mmnq7caYetu+BHWueW+fCp8LKeOJoHKekAqe6VTVSkZYnQppaWl6/fXX9bvf/c4twXQUvaQ/lgmMTr1rLzGd9KjhphRTF5apxZxHnvhsdgTRenqM58SYQE5cxDicfItiWatbMKjFKrPTlcrMvTjj/PZksNUy4c1vBZZnWwWbd1iNnYnaG239Vm9vr7l1Wx2tzVZzqNmqvy8/0rK3fKhl751/324tslsZF1da7W7ZkOPWbxrynfdMChRYO1pjL+SKZT734CWro91ij3GbVeF8w59uVQx/4zPea6+9FvfZuJ1Lt0svvdRZ0qI42aL1s89KXRq0gstHuN0X8932sBbFfqu5OPJzK9nrFAwTbT3MfSqujhu8BNUXaXUsbh68cgOTjxbFs0dsq2LsjRbG6SZaJyc4zx0PWhRPG1oUx+1kWxQTrT/UYjfsm5ZxfXsSVl32XOXtStAyeSJvd6puS5FKtzeZrYyguFn92yLfqkdbLj/1cJeeX5eoTS+spltv0GeqIlN1/MnV+SrdvFX5S31D38rvr9Ti9KIxDEATc8zsgWxSclS3fIe6notv+Tzz2S2K//iP/+g+wnRn/zz37t3rPhqdOeHRJz7xCZWXl9OiOOlGr58TGtaiGN1GqrKL85VxqbterHBIRQ82eVsmXeFHczR3rT2jbYEae6uUSWPilKFF8eyRqFUxFi2M00W0PqVFcdpy4iLG4WRbFBOtP1Etivavn72dknF+Y9Nt1UcHhfGlWsHl+c5gOhXbqqzaphar5aFc57ngQ0M9BdvustcPjj7IzvHj1m/a662yVXMHB8VJCZZazW6fwv7nCp3tZj8+juEd3D6YsfsCnC5XXHFF5PdmlJv9jXj0m2/6KE6VieijGN3GGG7D6ufYgcF8Vm7cQGCYXLQonl1GalWMvU23FsbI+aB9ztdrtdxXYGW640b4l+RbZQ0dCceYsI52W81m3eyl7mBa5uZbELTyt9RbHXEviJyDmvqvs8Oq/ftg5MqGBZlWSZN7TtrbYdVvybeCC6L1lN8KrCqwqpq6El790N1aa5WtCbgDLNpXauRbFaG4KylG0lrmvkfszXu+2/uyOVdcE7QC7nEY3J/494g5J+7vNK+JDixmzl0z11dZzWPcpUHxx2FewMourh12PEGL4kk4A1sUo/0Zr6tVV8M4+u5FW/ZWVanjkQKlXuiWOwYUusOvZXf3qGSv5fY3jLZclpj9LRv2zVDkn5I9THzksSlQ/5t79EDhLSr+Vlj63JP6xVOr9QfPfFEX/3W1TOhT8y1j29vwEzmae1NDzL4Ap8djjz2mNWvWuI+Gs1sQ7X6Jsd9019bW0kdxSkxEi2K0P7TZRthsY4673hiEd+YpI7dOKcVlCj5fqsqeXNW21o5rGzh5dovia6+9poKCArcE09mbb76phga7df7EpksLY+R8sEBlW9pUemePMtfnKugfUMtDlWo4aGLSmno1P5I9dB73tjlPXG7OE/f5lLo6T/npKaawW53muNTsM+dVS8rUtqdE6e4lW5Fz0LACS7oVfjuovJsWS+1tWrzF1EO+6Lb87vvOlg53qn5XjVrNewfuaVPL36dHNmTqwfZ7c5R5W5N6fKnKvTFfiy/tVtvjtap7pUcBc24aMuemw0eYiHGwSZW7WtRWV666/Zkq2BY0n8u+UiMyRka0vuyZZ55bbZ57t9QbDqlhV5M6e3zKfapdtasi59GD9fSKTGW2N6ktNV/5K1I10F6j2p2dZh8zVbW7XgWLRt2jiEN1ygvkqc68R+rKHGVf6Y/ZDnX2MHZQxPhEvhFK1FduqG/LVLYoRlvoxtb6OMQeuj1+XwdF+9rY+x12y/qbrUK77MZ695v3GGZ/r0tKsmZsSDDq6vEOq/qvZlhJSeXO5zz+b3brYJKVlOkd1TSi32rZnG7eNz1meozocc216sf7rREwwUZqTYxtQYxHi+JUmYgWxei38rLyG8bx9bKpMyOjnBZazW9F6mXn23ymxpgydoti7O8kt3PrdtFFF1m7du1y/zWcmQbHk/DlWjs6Y9rwjkavRvBZBc8M1Ttt2+zzoURXJ0TPlWQVPje0nWjdpUUl3il8jK6Hgs62Ytd3vGXO7ealWsGVQyOT9reWRUblX1IyeDVYROL9HNkIfRQP11v5zvZNedx+Dp5/xoyPMVhPm5sJqZ7zzN69ZZHxNJacYHo4R5e1Y4W9nVFGtP5i4tkDzlW0KJ6E8KNZmru2adg3Kn0/KlfmlaWye+dNZYti+72Ltfi2duU+1T307ctYvFSulI+VqmdJiRqfLlXmZeaTHBtQeG+1ir5Q5Hy7JcW0HrotkLqnTW2D3zq5+pq0cXaWqs2aG+uqteWzizTLPjBH+9X1fLluvvZutSz8ml5sK9KfJ7WrcvFHVfwTn1aUP6ma4qB850sDh0Kq3rRORU+H5VvfqM4HMhXp3mPWT1+sIlWorb1Qce8MTJlErYmJWhDj0aI4VSaiRdF4O6Si+ctUqQTfLh8Lq25thvJa/Sp5IKSy5XZFZ8puMmWeUU7tyfZTlfWglFvXotrVY77WAyfJblE8ePCgfvCDH7glmM527949pr7973nPe/T3f//3+tKXvqRZs87sTsHRUfAzH+lS45q4OuFgjbLmr1PTYF3Urupri1TdGVTNgeH9+xJdwRYtS09wnhZ573RVtLepcJFbmFB0ZGefSkJhlS2Na6WLjmK/ItFo+fES91Hse7ZIOXc1aNatLXGzAdgSnBtH6+lFic4Do1fAmTja2q2SJW5xItEr6b7YqP77MuNaRMOqycxS3bF8lTUVKmDOS2E4cRHjc7jRKnBH7fSvKLBKBidi9lm5W0qcbz2mrkWx12pcb2/DZ5W96BaNWfSblQS3ealWqvMZh/at95kC57lh30Y5+q22bZHr4Ydtyx4ldcbHrfJ9/dY7x921W8utDLv/YoL1/Wtqra7BuRmNXnO87ecYQRCnWWxr4mgtiPFoUZwqE9OiaLO/UQ86daDfCqyJTLhfUZw/2JfGv6Z+8NvukeZWjJ1LcfDKDEwa+iieXU7UF9wEROsrX/mKM2L7dDF4PpiwPjDnZMvt5wut5mEnO/bI9JFR6RvrqqyS9dmDdVHs+Wa0RTFRa19vU0HkHM0XtPK31VqN7V1Wf+y5VlT06rERx73osmqvs58fy1VeI7Qoxnqr1+oNt1nNoXprx7ZCK3+wL2bMa6L19ObEW4men55oHIvo8Rk2YjVGNMMcMIzXJZmqerlFVeszldxerfJNFWp6O6jSvZ2qXZPmrjRVwmrfZS9zlD6e0U4dfuU/1aHa4kyZUBgpWZKtgvua1d0ZUumVdkm3evucpxR+pd78P1uL58d9u+RIVnpxs9pba1W2Jji4Pc0L6HMFVfrBz3+kO/4yWTPc/ovJS+7QDzq+pbK1GZqbZPdrTFFacJ3Kd3Wo7ZFc+WO/yTnYLuedF/pHvx4emER2a+LPfvYzpwXRBERnVL4zvT8MTl7ykhI1tzebej5d2lupok1FKtoektILVNXUZeoptx/RoTqV3lbn9G2pviN6FYTrsmyVbTOnNz11KryzztTWAMYiWt8mYrcg2v0R7eftqznO9FbE4VLlT9gHbqZmOh8lrJ4jToHRp9bteUpLmanZs815UmCZsnI3qmZvn2ZfPvL1VSmXDj8ms1ZUqGFbpvw9IdVsylNW+lzNvGCuMtYWqWZ32LyT60hPpK76YKfqt1eqctitQS0D9gp16jxkL0/OwKt1Ksqcq6R3z9Zs/2ItC+Zo3aYGdVziH7GVMnt+9OTSa9aldt9NKdTT4yxHEj4Y6fOadnni7SABNzACp8fx4+a/yA04k918880nPboeLYrA5KNF8eyRqDVxOrYgxou0KI7UuhZ/RYR9xVhkVE7/qkJrR0Oz1RbutXrdPn3R1rFELYrD5+2O8VaX1VJXZRUOjmYauQ32p47pD3ii26jv4xihRbG9ItKvMNq62dphdZufa6QhNcHVdu4+jThafnSE1RNchRftI3ri/UYULYo4vZzWxMgNOJPZ33DTgggAkyu+NXH6tyDGa1P4TfeuR7e6D9hLv3yXmMXBelU+2CMtr1LjUxXKvy6o9DmzNMszQv1JuNCvwOoCVTzSoi6rX92tO1SwROp5olA1ewakS3yRFj17JH3Lcka0H+k2an/AEQ0oVFfkjOdR8EijdhTnKnNJqnzm53qiq8YaDiVuMew73O0ss+eM3lLom2PiptHxxugtjxhCUAQAAMAZwQ6DtrMvIEY1KPTi4IWeQw62KbTfLNcHtdhOTEd6FLLLr1ysVHvp0aeW58c2dUhEp2pylyljfpFCzmWjUcnyLclX4QY7QPWos8fsV3KaFq8yD3eF1D54CexE6lOPc8lqtjIWJoiG+1uc7kYJ7W0znyTegDkW1WaZbrY3+tA6/oUZzkA4dWY7nsPgsKdGinSDqjuFS2rPNgRFAAAAnHZ2a2JfX99ZGhCH1GyrUCg2hNmjKW8pVZOJMWU3BSN9nS/xKWgvGxrV+rZ9Z0j4iQIVPOo+GJNULU7vVevBSlXvjO8tHVbrs3boNEHLGWDCp+xbCs3/a1RwW53Cx5yVhtjzEKYkaW6gVKG4/RrZ0HgXMp/O5/TRbFD9nrh96WtV+foitbsPh3m+TGVPeF/TZ5fdb+6sKlLeqKO5GouyVbDCLO8vU+WPvGF9YH+1KrebsJwcUIB5FAcRFAEAAHBGOHTo0FkbECPSFTAhbNnCNOVtqlTlnRuVlTrXmV4neFe1Cpe4rWzzslRwowlu+8uVkZ6ljXfaA8mYMLQwRXM39Sj/vhInSDYcHNswWenrq1W2xKy/dq7mZm5UqTMwjb29DOU9LQW2VKvADVrJy8vUcJfZ+hN5mpuaoXX2fpr1i+wBCP32ZPV+BW/LVzDmMlh7+g27G1HOztjLOn3yL7TDp3nv20rNNprUqWRlXB+Zdq3hpgyl5RY52y7dkKW5szNUk1qlilvs1w6/RDd4Y1Dhm4b2vyg3TanXlKt1Xr7qt7nTG7nsqUKcrk1b7Ytco/zKf6BWub5WlV6Z6nnvtPQiNdkT7j9woik/zjEWAGBSMZgNMPkYzAZnuqHpMbqt5m3R6XZ8VurKAqsqlGDKhqOx65nbvICVv6XWarFXjU5jETMx/QkHs+ntsOq35FvBBZFBckxwsgKrzHs3dSWcfqw7VGUVrIoZ9Ma8f/b6KqvxwPABhaIDxcQOruM43GJVOFPI2c8PTQ3S+3KtVbgyWu4eA7Mf9pa7Hgo62xqcji06mI3Zdn9nzOuc41FvdSQY3yh6LBIOcOMeh9jjml28w2o77D6PQUn2/8xBAgBMEibcByafPeH+66+/rt/97nduCXBmiUx6n63aN+qVe5lbCJzBuPQUAAAAAOBBUAQAAAAAeBAUAQAAAAAeBEUAAABgkgU22xPV0z8R0wdBEQAAAADgQVAEAAAAAHgQFAEAAAAAHgRFAAAAAIAHQXEK2BOsJiVFbuX7pJ49lVoXmBspm5+hddtD6jnmrhyrJ6SaTeu0bGHK4OtTFi5TzoZqhXrcdVw9O3OG3uNHYTVtytJc+3FKmrK2t2rAXulYj0L3b1ROME0p7rr288vWFqlmT9wGB/Wpc2eRcqL766xfroZX+tznR3GkQeui75NeqXa3eMiAQndEP1uKc2wAAAAAnH4ExSnW9kCe0oMmmO0LRwoOtpowuEzpa+vklkQcqlNe+jITImsUemUoxPW8ElLDgxu1LD1PdYfcwjiNxXkmHDZFttfTqZR5qUo2j+rWpmvZrdVq2NOpwS2a50OPmuAaTFfeTs8eSG93quamVKXlVqohur/O+qXKWbhY656OWz/eJZnKLXbv769VaL97P2qgxWzL3ZNFRcpcErkLAAAA4PQiKE6xhifCymnoUr9lyert0I4bfU55zxN52vhoNHj1qemeQtXZGcqXq9oD/bLs9Y/2qnlzemSVnjpV7BreRmdr3Tegwme6I6853K2KFbPU92yl8p6wN5juPOe8v7n1v9GowkX2q3pUl1uuhiP2fduA2u/P1zrnNT7lPtShXs8+h1Vz/UbVHHRWHkGyMlaUmFfb2lW7x7u/A60h1bg5Mf2moNkzAAAAAGcCguIU8xWXqeI6v4lQxqxU5d9ZpkznGanpvgb38sxZyrzPDXrdtcqd56wtnT9LwWuia5vo9bZzQelwKwpUsDISz3SJT7PMyzv3V0ceq1sDMS9LvixTFe2R0GhZO5R9iftEnwlxd7RG7q8oU9ktqWavDHefg84TTaoeIaxGJQeCynd3pf3xUMzlpwNqeb7GbdnMNPtLTAQAAADOFATFKZZz5eJISIyaF1T2cvf+/hZ1vunejzHQF1b7ngbV3LlRWWvK3dJRBNLkd+9G+edlu/d6VH19imbOz9LG+00wfXOEsPlqu6LRctj25qW5QdGEv+fbvJfMxksOKuc2NwTGXn4ae9npimwF50XuAgAAADj9CIpTLOVSp10uxkzNHCxqUdjNTvblp633m2A4P0kzZ8/V4mCO1m2tVtOol3pGZM9xm/Bi+K4rVVlsH8CDTaq+NUeLL5+puZkbVb07bN5xSE+4zb1n3JnhDjgTvWWo1H1Kz/cM9XccQfryPPey0qHLT2MvO82/JWdYsAUAAABw+hAUzygpSj7fXg6odWumMm51g+G8TBVs3qH69i71h8rsFUZ3/kz3TozkdJXs7VbzfQXKXOANkuHd1dqYOVep11aq/W23cMz63eUoFgWV5/SDjF5+GnvZab4yr4wPzwAAAABOJ4LiFOt4I779rV/9g015qfLbGe7NBlXc6fYPXFSilvZGVW3JV/Yiv5IvGEMwG8n5PgW/WKXGl7vVf7hDLQ07VLI+U6lubux5tkil7kimvstTnaVjS4vbhzHRrUwBd7WRpSv7VrdvpX356b4WNd3tHof12QpG+0UCAAAAOCMQFKdY3e4WzyWeOhhSw/Pu/UWL3aAYVkOkRJqfJv+F7n0j3OkGyFOUfEmqAtflq+yBRrU9UuCWSk1vugFuQYYGS1s7PP0QB54vGrwMNWXr2PbHf2W2O2hPu2rXF6nSue9TyapgZJAcAAAAAGcMguJUe7RABQ93RsJiX6dqtpSqyXlCyt7k9uW7zK/o0DN6ul717uT2PXvKtfHOkHPfcdRdnlCfGtZG+xcu1sanOzUQneB/oEehPS3uAyl/gduSOCuo7NvdpsbdpSp9uF199mvsfX44EvPs0UrLVg+1J7Zujb5HknJ2xrWczstS3qrI3fb97tinvnwFA56hfQAAAACcAQiKUyx7TZZav5Cm2Xagmp3mzlNoMtONtapY7Qazy7JVtCUawBq0ceHsSOtd0ITKC1MHLxXVPm9L38hmKfvORhU4g9m0q/r6NM28wA11M1OUtT0S3Ox9KLku2r6XrOAdDSpbar9Zj+q+sFiz7deYfd74tP28T7l1Vcof82ilPmWuznfvR6TflqMgOREAAAA44xAUp9jiL+xQ24s7VLAiMs6nb0GmCu5rUefjuTEjfyYrsLlJLTEDz/gWBJW/pV4dL7ap6kanSHq+QaExjILqmJOpKnswm0cKlb88EPNefgVWFaiioSNuH4wLAyp5rt0ZACd7SfQZe/1C7XixU7WrPWuf0Kyl2UOXsypdecuZOxEAAAA4EyVZ9ogkmFT2JZkZd0bul7VaKomdpuJccqRB6y7NUY19f1GF2toL3WkzgLNbbW2tbrjhBm3btk3FxcVuKYCJlJaWptdff12/+93v3BIAwKmgRRFT41ifQg9WREKikXlrNiERAAAAOEMRFDG53qxTjt0X8oLZWhad8mNJmUpXje+yVQAAAABTh6CIyXVZqjKiA974UpW5vkotz5YoEDPlBwAAAIAzC0FxCgQ2D01Qf+71T0xX4QH383d3qPGBAgWYYB/nmPPPP99ZHjsWnZcGwESzf78uuOAC9xEA4FQRFAFgkl188cXO8siRI84SwMSzf7/e+973uo8AAKeKoAgAk2zOnDnO8sCBA84SwMT65S9/qd7eXs2dO9ctAQCcKoIiAEyy+fPn66KLLtK///u/uyUAJtK+ffucZXo642kDwEQhKALAFFi6dKl+8Ytf6Mc//rFbAmCiPPfcc87yk5/8pLMEAJw6giIATIFrr73WWX7zm990lgAmzre+9S3NnDlTWVlZbgkA4FQRFAFgCqxevVrvfve7VVNTo7feesstBXCqvv71r+tXv/qVPv/5zzPqKQBMIIIiAEyB5ORk3XrrrU5ILC8vd0sBnKpt27Y5y/Xr1ztLAMDEICgCwBT5h3/4B/3xH/+xvva1r6mlpcUtBXCyioqK1NXVpY0bN2rhwoVuKQBgIiRZ9kzoAIAp8fjjj+vmm2/WggULnLBoX44KYPzq6uqUl5fnTD/zH//xH/wuAcAEo0URAKbQTTfd5LR+vPLKK/rc5z6n48ePu88AGKvvfe97Tki02X0UCYkAMPEIigAwxe6//37l5OQ4Q/ovW7bMmTYDwNjs3LlTK1ascO4//PDDuuaaa5z7AICJRVAEgNPAHs7fHgn1hRde0F/8xV84jwGMrri4WLm5uc59OySuW7fOuQ8AmHgERQA4Tew+VqWlpfr5z3+uVatWOa2MDHIDDGeHwvnz56uiokJXXHGFc+kpIREAJheD2QDAadbc3KzNmzertbXVeZyRkaHPfvazWrp0qRYvXqwZM/hOD+eWI0eOaN++ffr+97/vtLb39PQ45QUFBbrrrrv0nve8x3kMAJg8BEUAOEPYfa8eeugh53LUqKSkJF1++eXOibF9HzibHT16VL/+9a91+PBht0T6gz/4A2cy/Q0bNujDH/6wWwoAmGwERQA4w7z22mvOQDf2Zaj/+Z//qTfeeEP//d//LaprnO0uuOACvfe979UHPvABpaen65Of/KSysrKUnJzsrgEAmCoERQAAAACABx1fAAAAAAAeBEUAAAAAgAdBEQAAAADgQVAEAAAAAHgQFAEAAAAAHgRFAAAAAIAHQREAAAAA4EFQBAAAAAB4EBQBAAAAAB4ERQAAAACAB0ERAAAAAOBBUAQAAAAAeBAUAQAAAAAeBEUAAAAAgAdBEQAAAADgQVAEAAAAAHgQFAEAAAAAHgRFAAAAAIAHQREAAAAA4EFQBAAAAAB4EBQBAAAAAB4ERQAAAACAB0ERAAAAAOBBUAQAAAAAeBAUAQAAAAAeBEUAAAAAgAdBEQAAAADgQVAEAAAAAHgQFAEAAAAAHgRFAAAAAIAHQREAAAAA4EFQBAAAAAB4EBQBAAAAAB4ERQAAAACAB0ERAAAAAOBBUAQAAAAAeBAUAQAAAAAeBEUAAAAAgAdBEQAAAADgQVAEAAAAAHgQFAEAAAAAHgRFAAAAAIAHQREAAAAA4EFQBAAAAAB4EBQBAAAAAB4ERQAAAACAB0ERAAAAAOBBUAQAAAAAeBAUAQAAAAAeBEUAAAAAgAdBEQAAAADgQVAEAAAAAHgQFAEAAAAAHgRFAAAAAIAHQREAAAAA4EFQBAAAAAB4EBQBAAAAAB4ERQAAAACAB0ERAAAAAOBBUAQAAAAAeBAUAQAAAAAeBEUAAAAAgAdBEQAAAADgQVAEAAAAAHgQFAEAAAAAHgRFAAAAAIAHQREAAAAA4EFQBAAAAAB4EBQBAAAAAB4ERQAAAACAB0ERAAAAAOBBUAQAAAAAeBAUAQAAAAAeBEUAAAAAgAdBEQAAAADgQVAEAAAAAHgkWYZ7HwBwBvqf//kfvf3225rq6nq090tKSnLvjbxe7DrAWJx//vmaPXu2zjvvPLcEAHC6EBQB4AzzL//yL/r+97+vf/3Xf9Urr7yi3/zmN+4zZ5YZM7wXpRw/fty9B5yauXPnKj09XVdffbWysrLk9/vdZwAAU4WgCABniHvvvVdf//rX9dOf/tQtkd7//vfr8ssv13ve857T2kI32nvHB8T4ABnFnxucyLFjx3TkyBEdPHjQaUmPuvbaa1VQUKBrrrnGLQEATDaCIgCcZnV1dSotLVU4HHYe5+Tk6LrrrlMwGFRKSopTNh3E/znh0lOcivb2dn3ve9/T008/7dy32b8b//iP/6h58+Y5jwEAk4egCACn0d/+7d/qoYcecu5v2LBBRUVFXGYHxHn22Wf1ta99zbkcOzk5WQ8//LBuuOEG91kAwGQgKALAafDWW28pOztbP/jBD7Ro0SLdd999uvLKK91nASSyfft2bdq0ybl/991368tf/rJzHwAw8QiKADDF3nnnHX3qU5/SCy+8oFWrVjmXntqjPQI4MfvLldWrVzt9Ge1WxmhwBABMLIIiAEyxvLw8JxzaJ7v2EsD4vPjii/r0pz/tjAj8zW9+U3/zN3/jPgMAmCgERQCYQvfff79uvfVW5zLTH/7wh24pgPGyB7pZsWKFZs2apZdfflmXXXaZ+wwAYCKc91XDvQ8AmES/+MUvtHLlSmc6iaamJl166aXuMwDGyx751L5ke/fu3fr1r3/tjBQMAJg4iSe7AgBMuG3btmlgYEBbt25VWlqaWwrgZNnTynzkIx/R448/rn379rmlAICJwKWnADAF7L5Ul1xyif7kT/5E3d3dbimAU1VbW+tMlXHTTTfpG9/4hlsKADhVtCgCwBSwB9ywv5dbu3atWwJgItiDQ82ZM8dpVfzv//5vtxQAcKoIigAwBb773e86S0ZnBCaePSepze6vCACYGARFAJgC9pyJdqvHhz/8YbcEwERZvny5s9y7d6+zBACcOoIiAEyyzs5O9ff3a/HixW4JgIn0F3/xF87yJz/5ibMEAJw6giIATLKf/exnzvIDH/iAswQwsS6++GJnsKhwOOyWAABOFUERACZZX1+fs7RPZgFMDvv3yx5dGAAwMQiKADDJ3nnnHWd53nnnOUsAE8/+/Yr+rgEATh1BEQAAAADgQVAEAAAAAHgQFAEAAAAAHgRFAAAAAIAHQREAAAAA4EFQBAAAAAB4EBQBAAAAAB4ERQAAAACAB0ERAAAAAOBBUAQAAAAAeBAUAQAAAAAeBEUAAAAAgAdBEQAAAADgQVAEAAAAAHgQFAEAAAAAHgRFAAAAAIAHQREAAAAA4EFQBAAAAAB4EBQBAAAAAB4ERQAAAACAB0ERAAAAAOBBUAQAAAAAeBAUAQAAAAAeBEUAAAAAgAdBEQAAAADgQVAEAAAAAHgQFAEAAAAAHgRFAAAAAIAHQREAxuDzn/+8XnjhBfcRAGCiffWrX9U3vvEN9xGA042giBH0qf3+cjW86T48Ka0qT0pS0vV16nFLgOnq6quv1tKlS53buRYY+w42qWbTOi1bmKIk+3c6KUVpwXUqejSknmPuStPRm3XKsT/P1la3wNRaW+3Pl6TyfW7BRNtXHjmGMe95WvS0qm77RuUE5ro/0yTNDeRo4/YGdfa56wBTzP5Czr75/X4C44SZXudifS9Vq3wXZ41nCoIiEmq/O1WLb23TgPsYONfZJy9XXHGFExLPmcB4LKyG25YpdX6W1j3RIn0sTxXbKlSxOUf+w42qXLtMKanrVPMqNcX0YX8JmKO5KRnK29Sk7sszVWL/TLcVKqh2VW/KUVrqMpU+T1rE1JszZ45uvvlmHTp0iMB4LnqpXKkf26g2/qScMQiKSGjgGN/mAPHsy6Kizv7AGFbd2gzl3BuS//ZGdb/RoeZHKlRYXKjCLVVqfLlbXQ0FChys0bql+ad49cFpclmu6i1L1uaAW3C2G1Dr1kwtvrVB/TfuUEdvl1qeqlKZ/TMtrtCO1i71vlihTIVUfk2myl/ibA1TL7aeJTCeY46JK9DOMARFABijaKtirLM1MIYf3ai8J3rkK25W6K5M+c53n4jhv65K1feYkNVTp4IHQlyBMMEsE2JHkui5UVZ3DOwpU/adrdKKHWp5PF+ps9wnYsz6aKFqHyqQT60qvbNWYbccmCrRVsVYBEbg9CAojkHPzhwlJeWo7s0Bde4qV57bTydlYZY23j9SH50+Z91112Rortv/I2l+hnI2VCsU/3WJ208mZ2enOncWaVmKWTclTVl3NEW+WTnWo9D9sX1JIv2Dyne2m3dJwO57snWdMuZH3jdl4TKt2z7GvkTuvmTcaT9oUN7l9jbsz+48G9ETUvWGnGH9lcp3dSbeH6P/SKt5TZZ7LOYqY225Gl4Z76VN7jENpiklup3ri1Q37u0AJy/22+5YZ1dgNHWIqX+kTJV9IajkSGFC6TcWqWBBUFnHBtTtlkX17KnWxuujdeDI9cRQHWsC6m7zOx6t60yduW57q7t+n1pNPZjl1jtzA+tUucdbmY67rk7QR3FE0Xp4sP5x69atI/XpM/WVqc+j+5uyME+VPxq9roo/Xh9adotzvHo9AdDS8Z89qc+dd74+t7ND/1lbqL+6/AKd//4P6TMl39Uvjo+QFq1uNTxYbv6m+FRSnCe/W5zIrJX5KloaUPacAfVQveI0GKmeJTCemgk5F+vrVIM5xxw8BzzBuW3ivpE9qrve3ofo+aX7OFDqPNuQG9l2zs7hr8QUs3BC3XXZ5i9vtlWyJdfyyWelri60KraVWPlLffZfZMu3tMxqectd2dFl1d4Yec6/osAq2VbhrF+wMtW83vyV9+Va9W+4q9reqLWyTXn6koDl86VaucVm/eJcK/fxLvNkdFvR9zXPbS6wMhe4772+0eqNbMXR315hZfrMe8SsX7jafd8l8fuZQG+LtcO8pmCFvY10K/d2e993WC3um/S3llkB5zO4+2nvT3G+FZhnry8rcFeb1R9Z1Wixyux1F2VamUvMcl62VWjWL1mfaZmTFLN+wCpo6nbXPZGhY+pbkGkVbI4co1T3s+bW2ccKmBpXXHGF829xtNvVV19t7dmzx1n/ySefdMq2bdvmPD7jvVgWqTOW7zC/eSej12q+PRA5FvPc39dthVZutN66sdaz3UgdG7Ry1wTN+/qtzPUlzvrZ0XplS621w/79j24r5ne/JDRU44y7rnbrXm1pcQtMrbUl8p5lrW6B7S1Tl9l1WGw9bPYvf4nfWdeuW9uGdsOIra9yY+o9U1fdaO+j9z3Hd7yOW+8cesLKTkqy0v8yYKWkfMjK22TW33SDlfeNg9ax48fd9byO/+Jb1mqzraSkIqvZs69nj9TUVOtd73qX+wjT3c033xz5nRjlNmfOHOuxxx5zX4HEJu5crL9zh5Ubd44Zu52y1pjKJVq/rqq1hm+926pdZb8m26p1zod7rZZHTD1mtmX/XNNvtP8GVFg7WmPPcHE6JNn/Mz8UjML+ljolt8HcC6jkuSaVLY9er9Pn9PfIuLNVgXva1PL36ZHSXes0O7tGgS0tCm0OeL6NDz+Ro7k3NSj4UJeab3G/07W/dbk8Tw1KV8neFpV9YugVA88XaeY1lco06zdG13eEVZO5TDXHslVaV6HMS0zRQKvKAxkq3R+/n2btnXnKyK2T1jeq84FMJbjiyMMe+S/jzmzVvlGv3MvcQrWrMn2xinpyVdtaq9w5brHt7VaVXpmh8v2Fau6vUND5CPZIW2Z/zD1zoqOWR3Llj16+dqhOeYE81alAjS9XRfZ/FOFHszR3bZMCtzer6a7g0P7HbqfTbOdEH+w0OXDggLZu3eo+wnT3+uuvq6WlxX00Onu01I9//OMqLy+XCYoqLi52nzlzDdZ5pg47mf57PU/nKf16U9/E/96bOjN0R6aW3e2tMwffzxdXtxxp0LpLc1Rj31+1Q111+YPbGvhRqTKuLFe7qdN63TptvHX1YN0b8zkjdZ9kgqJKljhFat++WIs3dSu3rkW1q2Pr4QG13pmhjK3tKnyuXxXLI3V3dD/SixsV2hZT30brK/tL8pj3HO/xcloU59ykb8/4c5X+cK+2fHy0Nt8Iq7VMM8wHS7r+Sf3in3Plc8vPJmlpafrpT3+qvLw8twTT2dtvv61du3a5j0ZnX65qt0LGX7IK2wSdiw20q3zpYpXuC6hsb5NKPjF0wjXwao3yl67zbidav66qVfdT8XWO3YKYoryn484z7VGhA6XKrutW/eqzsZaahpy4iFFFvqWW5bu9Oaa1zNXfbJXY3674yqzI98O9VmNx0ArMi35LEqe1zNmW59vk6LcuiyqsNrcoKvre+Q0n/laltyF/5P00+1W/xv72JtPaccAtGkXkW/W4z9BeZWUuTbX8nm/Co+K/HbK532Ip36o/7BbF6Hok8s2RqRDckpG0WRWL7O0UWI0JWkS7Hsq0UpcGrYrYFoAzzGuvveZ8Vm7n5s1u6bCX06VFMVrveFu9xir6+zpCHRitM1U42LI1WMcOe79ovSLLBDG3zGW2U2jvY8y31eOrq40xtSi2WVUrg1bqvJjXxYi+51A91mXtWG5vY/R6b+g9x3+8ovs9488rrXa36ESOt2w120iykq5P9O3+2SH6e8bt3LzZV3pEr+JArIk5F+t9psBZL93UXcPPMYe2E3zIvf5hXC2KLvcc+cTnhZgqtCiOQfTb4ZK9lso+4RYOGlBo00wt2x7UjgPNyp/nFrsG+vrUfahN4XBY7a2tatrdqNArPd5v6qPfusR8Mz7olWplLNyoVvmVXVyivOwMBRelatawL5Cj+6ER9nOoNTP3qW7Vrhr9m5rELYoxBvrU19etzs6wwq+0qGVvSE1Ptyqs2Ne432JdV6uuhtzhfWL2V2pxepHai5vVv22UflDR43Njvbofz56W34TbLYoDAwz1cbYoLS3VM8884z4a2VVXXeV8y/3zn/9cN9xww7nRotjToLyUHNWN9HtvtN5p6petPpW92K2Sjw693/BvkUf41tnh1i8x31aPu64eY4vikAFT75k6/dUOU6d3OvVe6PkGtR40pzvRfT/R54/We9H3PInjNerfjJH8+G5d8PFSvZPzxFndonjw4EH9+7//u1uC6ew73/mONm/e7D4amT3AmF3P2n0XkcjEnIu1352ixXf0jHiOabdO5vhjztVoUTw7OHERo4p8Y5xt1YbdgjjDv4HutzrqCq1Mt3/N4G1ewMpe4fZDif3mPMG32rG6nsp3++NEbz4rdWWBVVHXYnUfdVca/HYm1cqO9h2Mv7nXfo/0PrEStijaDrdYFdE+j7H7szTTCg77Vtz9FmvzCO836rdNMRK1wgKnSTgcjvm3n/hmAqLnm+3p1kfR/FGPfJaRfndH015hpZ/gtV0PBZ3tR1sJo61ynn6BjhG+dXa49cuwFsVx1NVjalG09Vot26L9IoduvgVBK3NpunN/8Bvw6DaLE13ZYcS/50kcrxP9zRjuuGW9dJf1/vNmWPrs49aBY4n7MU539FE8u5yoL7j9/KOPPuqujZFNxLlYr9W43j7uI9evg1d5RPu2j7pdWhSnC0Y9HY/BfiOja783qLTcSrVdnq+Kuka1dHart7df1oEW1d+Z5a41dv5VO9QR7lVH0w6VrM9Uqq9Hnc9Wqyg3QylXlqv1bXdFR6cathepaFOC24P2KIan4EiTNi7MUNHOAWUU71B9qE1dvb3qP9qtjlCN8ue76wFnsZFG47PZLYgmIDqjntp9E6cr3/zFcnrD7esYw/QIPZH5FjeUq+mQWzRGyTNP3LfupIyxrh6bPjVtSFXGpjoNXFmoHQ3NajP1ce9blrpfblaNp+/45DqV42X5P6y/fsfSjO/sV7jfss/QRmZZarkrQ8vWFqmOuRRxGjz22GP62c9+5j7yslsQTUAcHAEVZ5gLZ7p3cDYgKI5Zg8IJJ5TuU68zJnxQPmdAmZBqb7OHWi9QzTM7VLg6U4EP+jRr+LWi45M8S6kr8lX2QKM6ui31djaqbKXPnMiVquxp+1RulnzOABDZqg2bkwDzh37E23gvJXOFd1Wqusd8UrMP9dvylb00Xf5Zs5R8opOyV8PmVDKBI92Rk9AP+ke/DMrnN5/KONCdeDvAFLFPTBINyX62BMRBi4LKW2SWzzcodDBSNKKDjap9tFUNu/qVbP8im9/XVLv8lfAIIXNA4QMhs/RpcnLiGOvqsTpYr8oHTc2zvEqNT1Uo/7qg0ufM0qwL3efjnZ8cuXTrYM+w6UIc8VN0TMnxSjJ/IpZoqTmntvRN/fDF35u/Be5TCVjm71jj/a3a89irGjjVv13ASUj0hRwB8RSd0rnYLKVcbj/boI6E9avxZljt9vLCZBEVzx4ExXGo3+v8CngNtKnFHpRrUaYW231ejvREfuFWZWhxghOJ9r317r2xGFDozmVatjBLNXEna7M+mKmSTfnO/aY37V/9ZKWl23HKnNi1T87EVz099smKOc1Kd05rvI60KPS0ez/e0y1q87R6RnS2NjmVSsHHEmwv1pxUZdgnrU+EEm7HHhnWmc9sZ+LTLGCixJ+8nHUBcVC68jbZ9UmTSu9pMhFrJANqfbzarCUFNuVERjs2wWex/fu6q16tiU4oBkxd8YR9J0fpcX26J8qY6uqxMnW6U/NduTgS6Dz61GLCtIcvXcEVZrmrNmHI7msPmVo6xhQdr6Ski5V5yxYtMqeKd5U+oJ+45cOYBNn1dLXu+mWSfOsLlD1JPyNgJPGtiQTECXKK52L+BTnOsmlPq6n5hwvvNeefZpme7gbOy0zdZi8PdA//0mygQ20jnTPijEJQHIf2eypU82rsr0efWreXqtzktOxNeZFLtS7xRToKP12vUNxlWH0/KlfBpgQnMCNK1mLzCxd6pUnVj4fiTtbMCdpzkUtJCxZFfrl9KwtUaH47azYUqC7+ErBjYdXdlOJMjFr6/FgvJQqr+4h71/D5gs6yvimukrC3fVtBZAj7hKpVdm900uwIeyjlsi2mSllUpryYaTwSS1f2hkyzHL4dvd2u6nsr1fNKsgIfm7pLwHDuiW1NPHsD4hDf6grV3uhTz4NZyry1QeFh1Uaf2u/NUfZWU6ctKVPlLZGpG5yQeYc9cEGDCu+oU9jTgtan0JZInRm4K1/BMY3CMn5jqqvHytTpTs3X0Bh3mb89QFiBCh51HwzyK8cELJ8dsrfEff5DdSrYEF9TTtHxSkrSzMBtuv+rfymrtVifue4etR52rzJxV7EdeuZLWpP/HSX5clVZvGJsA+UAEyj6hRwBcaKd2rnYrOX5Klti6tc7C1X5o7gzUrOd0jvMOampN0pXRWtYn3z2l2b769W0b3h9XOk+SiTck/B6DJwO5o8ETiA60EJgiT0QzdBk0NHJkP1r6mMmQ+632u5yB6wZnJS+xCpYYU/M7Lfy76uw8u3nYjv3jjowwfCJm4e2Z8riJq62J8QPOgMu+K3AGndi6JgJ8b37OvTZ4t87Wu5baW9jh9ViD6n8Rr070arZzooCq8TZdmSAB9/SEqtqc2TAhaFBIKKDTeQ6r/NOPG3KfUGzbtxwD9Fjofih6BMch80F7oBBTLiPyWdP/mwC4kkNvz7tJtyPeqvNqlgZ+b2z67NggjpFSwqsxmGDG5xoAvkdVkfMVDcTO5jNWOtqI0HdO3wwm26r3q17hn0WU4eV3FdimSAZV4f2m+3Eff5oXWn2zZxGxa0/vuM1+t+M0R1/56D17MaAlZSUZG5zrYxVpi7/2nZre+kGa4V5v/NmJFn6k09bX3vxLWu6jXnDYDbTnz04DYPUTLTxn4uNdG54ogn3S57zTuVmT6nhc56Lq499uVbZZvs94ur2aN3my3T2kQn3Tz+C4hgMnsTs7Y2MZho96ViSb5U1dJg/8fG869knWJnrq6zGA/aa0Tm2hs+JNeIf/aPdVvN9BVb2kkg4dH5Bl5r3rmtL8N5Gd7NVtT576ETODo3mZKCqqWvY+iNVBtZbHVZtcfSXX1bJXrfcbLtiTWCw3DkG7uir/c8VOmWDc+hEKyd72/ZoqdHXucejOdGgViMGRZs5rg1lVv7gcbA/V6G140UqEky+kwmIUdM2KDr6re7QDqtwjT0/bOT3fqgOih15ebjuUJVVsCpaX7ivSVBnTnRQHHNdPaagaNh18LaYcDwvYOVvqbVa7DeOH+lvUL/V1VQxVF85r6m3OjpHru/HerxOJShG/abtW1aF+TsRXJASCY0zZlgfyPictfH+JqvLvOHxaTgwKkFx+juVehYjGf+52IjnhrbeDqt+S76pO9xzXHtE/5HO6YzevaZeW+mOlu++p934EHmP+Lo9btaAkxl5GxMqyf6f+WFgFNG5ucyJQ4J5tQBgdLW1tdNqHsXpirr63GbPo/j666/rd7/7nVsCADgV9FEEAAAAAHgQFAEAAAAAHgRFAAAAAIAHQXEMfKvrnSHE6fMCAGcu6moAACYOQREAAAAA4EFQBAAAAAB4EBQBAAAAAB4ERQAAAACAB0ERAAAAAOBBUAQAAAAAeBAUAQAAAAAeBEUAAAAAgAdBEQAAAADgQVAEAAAAAHgQFAEAAAAAHgRFAAAAAIAHQREAAExrx48fd+8BACYKQREAAExrSUlJznLGDE5rAGCiUKMCAICzgmVZ7j0AwKkiKAIAAAAAPAiKAABgWrMvPT3vvPPcRwCAiUBQBAAAZ41jx4659wAAp4KgCAAAprV33nnHuQEAJg5BEQAAnBXsUU/PP/989xEA4FQQFAEAAAAAHgRFAAAAAIAHQREAAExrjHgKABOPoAgAAM4KDGgDABOHoAgAAAAA8CAoAsAksycDBzC5LMvidw0AJhBBEQAm2R/90R85y7feestZAph4b7/9ti688EL3EQDgVBEUAWCSpaSkOMs33njDWQKYWMePH9fPf/5zvf/973dLAACniqAIAJPsf/2v/+UsX3nlFWcJYGLt37/fufQ0LS3NLQEAnCqCIgBMsosuukiLFi3SSy+9pN/85jduKYCJ8sILLzjLJUuWOEsAwKkjKALAFPj0pz/tLBsaGpwlgInzzDPPOMvly5c7SwDAqSMoAsAU+NznPucsH3/8cWcJYGL8+7//u/7lX/5FGRkZXHoKABOIoAgAU+DP//zPdc0112jv3r169tln3VIAp+ree+91lrfccouzBABMjCTL7v0NAJh0zz33nP7qr/5KixcvdlpBAJya3bt3KzMzUx/5yEecAW0AABOHFkUAmCJ2i+LNN9+strY2bdq0yS0FcDLseUm/9KUvOfe3bt3qLAEAE4egCABT6J577pHf79f27dv1T//0T24pgPG64YYb9NprrzlhceXKlW4pAGCicOkpAEyxH/7wh7rqqquc+1//+tf1hS98wbkPYGz+5m/+Rk899ZSysrL03e9+1y0FAEwkWhQBYIp98pOf1He+8x3n/t/+7d/qjjvucO4DGN2rr77q/P7YIXHZsmV6+umn3WcAABONoAgAp8G1116rUCikyy67THfffbc+/vGPq7m52X0WQLyKigpn0Bp75ODc3Fw9//zzmjlzpvssAGCicekpAJxGv/zlL50+Vt/85jedxytWrNCaNWuceReTkpKcMuBcdejQIe3cuVMPP/ywwuGwZsyYocrKysFBbAAAk4egCABngG9/+9vOADctLS3OY7ulxL7E7sMf/rCuuOIKXXTRRQRHnPWOHj2qw4cP68CBA3rppZfU3t7uPiOnL++Xv/xlZzAoAMDkIygCwBlkz549Tv+rpqYm/d//+3/dUuDcFAgE9Nd//dfOpaaXX365WwoAmAoERQA4Q3V1damzs1M///nPnTnjqK5xtrvgggt08cUXa86cOU5/xPe85z3uMwCAqUZQBAAAAAB4MOopAAAAAMCDoAgAAAAA8CAoAgAAAAA8CIoAAAAAAA+CIgAAAADAg6AIAAAAAPAgKAIAAAAAPAiKAAAAAAAPgiIAAAAAwIOgCAAAAADwICgCAAAAADwIigAAAAAAD4IiAAAAAMCDoAgAAAAA8CAoAgAAAAA8CIoAAAAAAA+CIgAAAADAg6AIAAAAAPAgKAIAAAAAPAiKAAAAAAAPgiIAAAAAwIOgCAAAAADwICgCAAAAADwIigAAAAAAD4IiAAAAAMCDoAgAAAAA8CAoAgAAAAA8CIoAAAAAAA+CIgAAAADAg6AIAAAAAPAgKAIAAAAAPAiKAAAAAAAPgiIAAAAAwIOgCAAAAADwICgCAAAAADwIigAAAAAAD4IiAAAAAMCDoAgAAAAA8CAoAgAAAAA8CIoAAAAAAA+CIgAAAADAg6AIAAAAAPAgKAIAAAAAPAiKAAAAAAAPgiIAAAAAwIOgCAAAAADwICgCAAAAADwIigAAAAAAD4IiAAAAAMCDoAgAAAAA8CAoAgAAAAA8CIoAAAAAAA+CIgAAAADAg6AIAAAAAPAgKAIAAAAAPAiKAAAAAAAPgiIAAAAAwIOgCAAAAADwICgCAAAAADwIigAAAAAAD4IiAAAAAMCDoAgAAAAA8CAoAgAAAAA8CIoAAAAAAA+CIgAAAADAg6AIAAAAAPAgKAIAAAAAPAiKAAAAAAAPgiIAAAAAwIOgCAAAAADwICgCAAAAADwIigAAAAAAD4IiAAAAAMCDoAgAAAAA8CAoAgAAAAA8CIoAAAAAAI8ky3DvAwDOEEeOHNGPf/xjdXR06M0339Tbb78tqmuc7c4//3xdfPHFmjt3rj7ykY/oL//yL91nAABTjaAIAGeI3//+93rkkUf0zW9+U//yL//ilgLnrosuukif/exndcMNN+hTn/qUWwoAmAoERQA4A2zfvl1f+9rX9Otf/9p5vHjxYn3yk5/UokWLdMUVVzgnzElJSc5zwNnq6NGjOnz4sF577TW9+OKL+sEPfqBf/epXznNXX3217rjjDi1fvtx5DACYXARFADiNWltbdeutt+qll17Seeedpy9+8YvKz8/XggUL3DWAc9uuXbv09a9/Xd///vedxwUFBaqqqnLuAwAmD0ERAE6TRx99VGvXrnXu33TTTSorK9Pll1/uPAbg9Z3vfEe33367Ojs7FQgEVFtbK7/f7z4LAJhoBEUAOA3sFhG79dD28MMPa926dc59ACM7duyY0+L++OOPa968eWpsbNSf/dmfuc8CACYSQREAptjOnTuVm5ur5ORkp5XkmmuucZ8BMBbFxcWqqKjQhz/8Ye3du1fvec973GcAABOFoAgAU8ie7iI9Pd0Z4fS73/2usrKy3GcAjIfdV/GBBx7Q9ddfr3/+5392SwEAE4UJ9wFgChUWFjoh8Z577iEkAqegurpaV111lZ566inV1NS4pQCAiUKLIgBMkbq6OuXl5enTn/60du/e7ZYCOFnt7e3OVDLve9/79LOf/cyZsB8AMDFoUQSAKWK3Itq+8pWvOEsAp8a+jPvv/u7v9Itf/EL333+/WwoAmAi0KALAFAiFQlq2bJmuvfZaZwAbABMjHA5r7ty5SktL03/+53+6pQCAU0WLIgBMgYaGBmd5ww03OEsAE8OeS3HlypXOQFH/9m//5pYCAE4VQREApsBzzz3n9J/667/+a7cEwET5zGc+4yybm5udJQDg1BEUAWCS/epXv9KBAwe0ZMkSvetd73JLAUyUK6+80lnSoggAE4egCACTzA6JNrsPFYCJl5qa6nwJ8+qrr7olAIBTRVAEgEn2y1/+0lm+//3vd5YAJl5KSop6enrcRwCAU0VQBIBJ1t/f7yxnzpzpLAFMvD/8wz/Ub3/7W/cRAOBUERQBAAAAAB4ERQAAAACAB0ERAAAAAOBBUAQAAAAAeBAUAQAAAAAeBEUAAAAAgAdBEQAAAADgQVAEAAAAAHgQFAEAAAAAHgRFAAAAAIAHQREAAAAA4EFQBAAAAAB4EBQBAACAEYQfzlJSUpJSbqpT2C0DzgUERQAAACCRgZBq7mySlpSp4YFc+d1i4FxAUAQAAAASCO+sVLlyVbuzRIEL3ULgHEFQBAAAABLwr2mU1V2r3DluAU4by7Lce5gqBEUAAAAgkX3lSklKUlLSYlXud8vOZX1hNd2/UTnBNPe4JCll4TLlbKhW08E+d6VYrSq317u+Tj1uyUk5Ftauwgd0oh+BdfygHlqRpD+44P3Kqz2od457w6Vl/UZt99+lXW+6BYZ1/F9VNmOGzvubnae2j2chgiIAAAAwzIBCz1Spx+eTT+2qeCpkSs5dA/srlZU6V1m3VquhU0pbHlTQ3PwDITU8uFFZ81OVdW/7JByjHjWsnauce/vU75YkZB3Xb0OP6CvPnae/+Gq9avLm6bwZSe6TET/Znq6Pfqktbh/NOk7odR9iEEERAAAAiNdnAtDdPdKNlapcY+LK3XVqOuI+d85pV/X6IjX1BFTQ0KX+7g41P9fs3FoOWOp9eYdyfT1qui1Tpc/HxrCASixL1lO5JmyfvIExpE/LCmvnvdt0/k1P6omSJUp2y2MNHO3WeUnv6Nixd9wSkxFnZKj0HVP2zdWntI9nI4IiAAAAEKdvT4OqzbLgykxlrsw392pU8+w5OkHGS02q2GeWxWWquM4/LITNWpCvmscLTdDqUeXDDVN+CafTfzFprvK/e1T/95G/0RUJ+jNax4+59yI8V6XaYXakLpAjPnH2IygCAAAAHmHVP1xjlgXKvHKWZq3IVaF51PR0KPFcim/WKScpSTk7O9W5s0jLUpKUlJKmrE1360vO/XK1uqt6tasy3b7ssUih2Fazvk41bF2nZQtTnH6ASfMznH6AoWEJzO0DuLVVfT+qVM58e1tzlbG2Rp2D2+tTeHe1Nl4b7Vdonr++SHWvJOpTOAKTsZy3Tp6ZsKXOlrw8R3ac9r/Rq+5IkZGgj+LgsTIlPSFVrl2mNPsYJaUo7dqNqv5RzH7tK3fK8562H5Qqw9n/uGNptvFAwef0qQ+/T+edd565vV8LPvUF3fXtTvU6K1g6/rMnlXP+uxQoPapj73xbn5/3B3rXBTl68tA7JjD+WP84M1nn/z/xfRTN637xA1VtyFGGOa4zZsxw+mOu2x5SjzdzOvpeaVC5+Sz2us7PzDnO5vPsGfZDmzYIigAAAECsgyE17JZ8t2crOMs8Ts5Q5u0+yQSuhlFGVAnfl6/gbU3y3VihihvTNWvh/6O/2WBe11OlkN0iF29/SLVme77bM5XhJrCBV2uUl5qmnDsb1b0wTxXbKlSyfLbaH9xoAmiGyvcluA6zqdAE2moNLC9RxeZMzfb75Xe2F1bTrZmam2kCS6dfOZvNftnPt1cqb2Gq8naOsYX0Ep8y7eXDVarZP1LADKjMstTVWqB0t2RUL1YoK32ZqntSlX2b+YzrF2vgWRNor0zVxmfd97gk3Xz+EuUush9kqsAci4pt6YOXiA6YIJmRskwbd3XKt6JI27+2XduLMjXrjUdUmrNAK/8x0mcy6T0fUNbXtmnDp+0At1ir/2GbWfcz8r/HfmzJOn5cSe8c09F3jkc2bELib1vK9PH3X6NbH/qJkj5pb/sO5Vx+SI/8w6eUcqUJq2+7qxrhnXlKXZij0r3JWrza3kf786Sqb6/5PMF0E3SnaVi0AACT6sknn7SvW7G2bdvmlgCYaKmpqda73vUu9xFwatq2pZt6O92qaHcLbO0VlglAlu/2ZqvfLRr0Rq2VbacL85qSvXHPRl+3pcUtGNJ2j/0+Pqsk5L6mv80qW2JvJ2CV7e2NlLn6O3dYuT7znK/AajzsFlotVpnzvrKyH+9yy4Z012U7z/lu3GF1vOUW2t4yr3Pfx/MZR9Rvtd0VcLblbG9BplWweYdV39phdcdudxh3/1bVWt1uydCx8lm5cfvcv7fEOVae9c292lX2+mVma7HarIpFptyXa9WG3aIo8/nuWJRkzTivyIoe2uPvHLX2ftUu+5xV90akzJRax4/9yLrrgvOt83Iet/7vsXcixf17rDt8SVbS+26wajpjfp7Hf2v96/8bsJKSZlgfv78jUna43sq393mJ2b/4YxF2P+vyHdbwn86ZjxZFAAAAYFC7QnXt0qI8BZ2WLNeibBUsP8GgNuY1OZ+IuzhzUVB5Zjs9D4TiLj817/O4/T5FylkaeU3f8zUq3Wfi5pZKFX7CbsockvzBfJXdlWk2VK3KXfEtgQXKX+l370e1q3Zbg1lmquzOfKVeGCl1XBhQyYMVSjd7NLbRXJOVfntIHXWFypxnduGVJlVvXaecQJpS3m1PkZGljfc3KTyOq1nl26iNN3r3OfkTWcqx7zwdTnyJb6z9LQrNTpV/w8bh81xe6NeH5ls6/k6XeqI/K/tyUPduvGPHjkvnn+8+Mj+H5m+r4kiSrvpysdZ+MObnmZSsQNFW3TYvoJmv7JfJp+ptaVF4iV/Zt+YrEHuMbXP8Wmwvn++Z8n6bE4GgCAAAALgG9tSrYr+JV7dmx11C6VdwtX0B5iiD2gRMcHHvDklX8CazpfjLT93LTtNzg4PvE36l3llmLg0k7AvoX5qnbLMM7W33Bo9FfqV4c6V0sE1N9mWy15nAa8LdMIsynMtJex5tVWek5ASSlbq6Qo0HLPWH21T/SIkKVgWcz+sEx1uzNDc1S5X7Txw7HcsTHSu//KvcuyeyqECNoQ51bQ6YH1qf+no61bqnSXX3l2rj9dkqdfo1Ok2XY3bBeZFo9NOfPKjj1qVa+tFU76A3Jmom/eEyVbz2Iz3/T6vlN+Fz9rUVam7tUv1qn/S22Y9D7QrtaVDN9iKtC+aryn3ldERQBAAAABwDatld7oSwprVzFRmUZOg2d22Ts1bTfQ1qd+7FSZmt+LxmS19ZYEJZj6qeH2pTbH++1mwjXXnLozGxT91v2O+crbTLIiXD+HyRcNXT651TcH6KUty7g470KGQv+0Kq216pymG3RoXtFtOeNnXGTEA/Fslz0pW9pkxVT7Woy+pXb2ejKlaZPetpUtGKUoVi+u+NyOzzKU9HcaRVlblpSpk5W7NT0pQRzFLerTUKHZktf2xrsJGUdJ5mzBgpNg61NVrHf64D7UdlWQHN8Y0hKlmWftvxpApXmH8v77lYs/2LtSyYo3WbGtRxiQm+7mrTEUERAAAAsB1pMqHKLOcFnMnkE90Cduvc/lqFRhnUZph5QWWvMDlq8PJT9/LW5QXKjgs0Y3LhTPfOGOypUemmIhUNu5WrbjyfYUTJmvXBTBWa0Fi/xjzsqVTDnvFcg3qSzM9q48IMFe0cUEbxDtWH2tTVawL00W51hGqUP99dL87xd44naGVMUJJ0vi644Dz30UgsHW+v0LIP3aR7/2Ou1m2rVdO+DnXb+2F1qeWpUmW5a05HBEUAAADA6Hm+VvakGNlbGgYnlI+/Nd1TYNZoH2Pfvii/sm7MNm/gXn7qXnaauToY0+I0SymX221sDeoYqYXvzXCkJfPCZJ0wKl7iU9Bebm6xB68c5Vav3JFaMB3tqg7YratxU3gM41PGcvvCWKn77bEfmZMV3lWp6h4p+ECj6rflK3tpuvyzZil5qKvhGCTqtejTnP9lFlarwmb7M0bq2GhYVr9COzfpx0lJKqj5rh4uWq0Vf5kqn70f9vPHo6OoTk8ERQAYgxdeeMG9BwCYDKe/ng2r8Ql78Jds5Vw58kWRs0wYsudUHHVQmwR8y/OU715+GrnsNFPZV3ovTPQvcIZyUdOe1oQhNLy3wbmcND3df+LLNuelKWiv9GxLJFyeNL/86XafTBOihw2iE2tAHe0tZulTqi/RBbgTq6fHubBWwfRUZ+lxpEUht4/iiSSdN0MzrKFAZ19i/MH0NbLMz+qFlxL13jykxz7zQX3y0xVq+X2fDr95gXnRdQosiO9VakL4/hZ9y4TRGaOlzTMYQdHW06q67RuV43xb4l6DHsjRxu0N6hxry/nbIRU5k4WOML/NiNyJSD2ThyaYnPQ0at0aOSYnvo00mewkOdSgogdPreoDxuqxxx7T0qVLCYxnlDOrrjyRvpeqVb5rOuwpcHocOnRIfr9f3/jGN9ySKba/QdW7zXJVjoKjtbBF51QcbVCbRC4JKnONOe1sKFOpfdnpqjxlxQ0yM2t5vsqWSO13FqoyduJ5w55fsfSOJpPDclW6yjvMTmIB5W7JNJ+rSAX2hPxuaVTfj8qVYU9yf33NCQazmaXg2jKztR7V5eZp46Ot6ok/1R3oUejuHOVtN3XckqFRXCdWt3pjPoTP57SXqr4pLlQfC6vutgKnZTixsLoTBPx3oqPWmL8rFy9frdv+xFKo7C7tPBRpebVZx9/Rr7+1TbfvPqgDH/mwPnz+bPmukM5Tg771gwND65nl8d+06K6Cf9BPnJLp6RwPin1qvz9Hc1MylLepSd2XZ6rEmcizUEG7mX1TjtJSl6n0+ROnxfDTlars8Sm3rlYlSybjl+P08y9JfK3+0C3SzD4lehqU589R5ZHJv7QBsH31q191QqIdFgmMGLeXypX6sY1qo8oCRvT5z3/eOcG2l6cjMEZa+aTs64InaK1LVoYJdPY6Iw5qk5AJXNcVmODW5IxGmr86c/j7JKer8NEdyvW1qvTKVKXlFjkDz5RuyDLnpOtU1xNQyePVyh71UtEh/luqVL/Gr9Y7M5RqT2Fxpz2ITak2Xpum1CtL1epLU95teUrQJueR/NES1T5jzo/NflWvzVDKTLtRZZmWXWNuQXswmRQtMyG2Z0mBGncWxo0We6p88i+0j1S1ym4rNfvf5ARb/4oCc5zMz21rhtIyN6rUHqBnU57SLp+rwjfzVbXZDpINCsdcxuufZ18a266KO+3jWqPWhC3CSZrxnk9py7f+X/1ld53yPjBPKws2m3ywXUV5C7Xg+q/rcGCrdm2+Ru+ekawln/uqlsyYoe/kX62FecWqcH5en9G8Sz6px9Lu07Z1dttimw6Nc8CgM4L5hTxH9VstWyIThzqTkHrnNHX0vlhhZdoTm9qTnr44bGrVIf3NVolZL7ClZfgErCcUnSg1fhLRM0fLFnv/ZJW1ugVnguhkrQkmrwUmy8033+z8LkRvV199tbVnzx732ZEx4f5kSTCR85mqtcz5N5Bdd8bv6bTFhPtnh0cffdRTz86ZM8d67LHH3GcnkXsuJ2VaOw64ZaMZXN8XOT8a63nJ4OsKrMYE556Dejus+i35VnCBL3Is5gWs7PVVVvOwKmQs9WCv1dFQZuUvTbVMrnK251sQtPK31Fot462SerusxkcKrfzlAcvvbsvELyuwqsCqqGuxuo+66w0aZcL9hMdqhMn1D7dYFauj+589NMF+d7NVsWZoX/xL8q0ydz/6nyt0yoIPxUx1/1aHVVucObh+yV67cORjePwXP7Cq1mdZae+bYc047zzrfR/+lPWFiiYrHDux/vHj1m/+40mr6K8/ZL3vPLPejBQr9TPrrf/zzGtWr3nu4NeDpuw8q/j58aeE0+2cDYr9oZLIP7YVO6yYfz7D9D5TMKb1Th5B8aQQFHEahMNh53ch/naiwEhQnCwERQwhKJ49rrjiCk8da9+mLDACp+jYsWPWsXfesfNjxOCd6eccvfS0Rw0P2nPk+FRSnDfq/CazVuaraGlA2XMG1BN/BWpPSNUbcpQxP9JHL2XhMq3bOnK/xr5X6lR0bZpS7D41KWnK2z78evGIkfvd9L3SoPK1GZprP580VxlrKxUyK0X6EeaoLr5Ze5z7OLH61LmrXOvsSxKi+3v9RlXvGd5HJ7L/dh9H85qdRUP9RednRPY3Zj4eZ93L82R3N9edGZH1tnp7R/bsq4s5TilKC65TZYL3BcbDnKjo5ptvdh8N4ZLU06//SKup67Ji6sZyNbwyzoqur1MNW9dp2cKUwfonZ0O1U8d69ajuevt9EtS5Rs/OHOf1OTvtF7rrBkqd5xpyI9uOPAcgEftS/3h2/8XTdUkqMB7nnXeezpsxw9T1bsHgnenn3AyKPS1qdEZCylMwcKJedekqDLWo/oECBWIGcOp7vlQZKcu08cF2zV5eooptFcpb2K3GO+1+jXmqO+Su6ArvzFPqwjxVvigFiytUcUtQfQ9lKPWmKrW565xI+Ol1WrwwR6W7+xSwt7E5U7P3FmlZep6qXnZXijHefZxQb3eq5qZUpWWXqvFwuvLsvp/2/rZXa2MwRRkm2A3vqhNW/aZMpd3WpOQrC5y+ornJYdXY+7u8crAPgG+R2dbtuZHr31fY65nHi3zOc/aIW+33Zik9kDd0nLblKf1wo4pGfF9g7BKdwEQRGE+TA7XauDJDG59PVrapD0rWp6rn0VLlLMzUxt1jC2T2IBF5qWnKubNR3aautuuVkuWz1f7gRi1LGe8gZbGS5V9h6qH1mc6j9BsjdXGm/+zsyw5MBDsQXnHFFe4jLwIjMHWS7GZF9/65Y1955NvdVbXqfir3BB2WE3izQXkfy1GdclXbWqvcOW65YYezzGvK1bqkQm2tbmfeN+uUY7eALSpU4/PmBOESZ9XIqExrM5T3hH0iU6YWq0QB5wm7RTFDpbH7F92GL+49PdvIVu0b7lw4493HUdgteBl3mj1stVSyxC0clQlrdwe1+I5WBba0qGlzQIMZ2w6QG4Ja94RU8EynqlZGnom+h5aY47DbHIfBF5jPd/1c5T3tM+/fPfT+0eNhtm+Z7UcNmJ9thvnZti8pUfOzZQpGj7W9nZvs4+R936ly4MABvfPOO+4jTHe33367vv3tb7uPRnb11VfrK1/5in7+85/rhhtu0LZt21RcXOw+i1Pn1pXmnu/GWrU8kit/dP6sQ3XKC+SZOrBAjS9XDdW7iQy0q3zpYpXuC6hsb5NKPjFUP9gBMn/purjt2K2EKaZeiqlzY9gtiim5Dcqu61b9avcvjPt3x1OGCZWWlqaDBw/qP/7jP9wSTGe7du3SHXfc4T4amX2lh/0FXqKrPQCcIucC1HON21fkZPu1tN2T7rw+cV+Tfqv59kjH48LnIp1Wux4KOo/zGxL0Wj6ww8q098XTR3F4v5tRtxHtr2d37n0jUjTefRxNtI/iqLfYY9nbaBXYZYvMZ0q0+ehnXj7U7zP6Hon2t7sue/hzCfso9lr19rQ38lkloQRvfLjeyrdfM2n9TUf22muvDR0rbufcze47ZS/pozjRon288636w25RjK5HMp3jnrgeHGL3RbfXSzf1SaIqK7qdoQERooMtDNW5sRLWWfRRnHTR3zNu5+bN7sM4lsHFAIwdLYrjblHsUcNNKcp5Ilu14XpPS92gH5Uq6cpy+e5qU/ftKSdYv12V6YtVtH+0FsWY90zw7bXTWpY9V3m7os+Pdx9Hb1OMtvbZ02P43+0WxltQqNp73GGeXypXysdK1bO5RdaWoda+IdH9zVV9d62yzYsi7+FT2YvdKvmou1pUom/iE7UoDoRUNHOZKlVijqU930+84e87VewWxTvvtJtMcTYIh8P68Y9/7D4a3VVXXaVPfOITKi8vp0Vxwrl15XW16mrIHd7ffH+lFqcXqb24Wf3bgiNO39N+d4oW39Gjkr2Wyj7hFsY6ZOobv6lvbqxX9+PZTp1Mi+KZx25R/OlPf6rrr7/eLcF09j//8z969tln3Uejsy9TtVsV7UtSAUwgJy6ea14si4xkel3tSbQstVkVi+xvr0pGHqX0wA4raG+/uNnqH/zmudBqTth4l2gY4PgWxTarzBlKeeSRUVs2289Hv90e7z6Obryjnka/nc9+fKSj2281F9vbDA4OQR15j8Tfzif8Jj5Ri2K07IPZVuG2Cqsiwa1gxfg+C5BIohH54m8mIA5+u82op5PFrSs3j1DTReuEUa8e6bUa19s/s5jh1uP1N1uF9nYGr4KgRfFMxKinZ5f46YgS3ey62J5OA8DkODcHs5mXrhx7uatN4TGMT9B6d4aWrS1S3UvjHMwgeeYETUBv3neyBsibsH08GbM0M9qfaCK92qDKTUUqSnCr3u2uA5ykxx57TD/72c/cR8PZLYgmIDqD2dh9FHEWuXCmewfAZLIHrBltoBq7BdEExMGBbQBMjnMzKM7KUHCNfadWodYThL+BkBrva1Xo0U71z7IjVYr8C+0nOhUeYdTQgXCnQmbpmxmJYMnOIqyehGGvXzrm3h2RX/5V9tIE2wRDsdvbDr/i3nWMfx8n0qyUFOcS1IYDI6XbboX328tk99hMkEt8kUvP7MvQInOEjngb26A8wHAjjXpKQDyNXjX1q3vX44ipa+zlB/2jdDGYpZTLnRpLHQnrV+PNcGTU5QuTRVQEJt9I9SwBEZha5+g8irOU+YUypZtTi/I7qgenXUgk/HS1ys0ZiG99gXLm2SUmjKTbffoaVN+a6NRkQC17ap17OQvs2OJT+lJ7WPQG1e5xTlm8jrQrtMu9PyKfUgOR9wy9mGBesGHbGO8+TrBoi+2zISXM4QdDanjeLBctln8iu+okp2mxHah3hdR+JFIETKRErYkExDPA0y1qi5lrNaqztcmp3ws+lhopGIF/gVNjqWlP4ulzwntN3WuW6enRwGnqWOfLuLC6h9U1A+pod2Z5BXASErUmEhCB0+McDYomUywpVLU90Mq+ImVeW6nWBMEivGuj8m4yf/B9uarclDk4xUP6qlLlmrOFhtsKh81F2Pd8mUrvNuFsSZnyl0de4V9ZoAKzftMdpXHrh1V3W4Fq3EejSV9VpGyzrNlSpibPvibexnj3cULNCir/LnNs95eqcLs9hX4Me3qMLaVqMidauXfknXBqjhPq7o3Zvk/ZtxSa/9eo4LY6heNbau3h8lOSNDdQqlCCk0rgRGK/5SYgnkmqVXavt66xp7Uo22Li3aIy5Z2gnpu1PF9lS6T2OwtV+SPvl3H2dkrvaHL+DpSuGqqxfJfZXwC2q/5Zb7js+1GlSre7DxII93S79wAkElvPnrEBcV+5UpKSlJS0WJXOFVIjsAfes9fb2uoWTLBjYXOeN3qDx6nrU/v95WoY6YqLCTTwfJFSUopGPkeLHk9zW7crQcNJAj376lS+dpky5kdel5Q0VxnXrFP5zlb1xJ0n2gORRdYZ661czk/27ZCKUlK08dmx7dO0Yp3TuqzGLwbcTtF+K7CqwCqxBz3ZXGBlLohMHyFfplXRPny4l97nSiwThZzXZa4vcQZKKVydGhkkx5dr7ej0vqa/tSxu/UIr134PX8AKOAPPjD49hq2rLtfdfqqVW2wPzhK/jQKrMWb2jPHu40jGO5iN460Oa8eNkWPoW5AbGVzGPq7zItsK3N5sxU70Me7BbOxj5AzwE7DyN5ttP9PhlvdbLXcFI59xnnnOOU7mc68JWH67zByL/KfGP4QRYA+YYP87jB2kZqwYzGayROvKXCvX1AfRuqZkfWbk990XNPWWt56LDjTjnVrH1BydO5xtmAhopa4udOqNwe2YeqbkubipiQ43WgXO+rL8KyJ/OyL1q8/K3VLiDKKTcAAu8zfF3scdrQmmOsIpYTCb6S8cDju/U2f2IDXuFGM+n3Ou4TPnMyOeTSWcymuidFv1N9p10MgDHU6Etrvsc7kRzs8mklunjjbgV2SqInPc7br3hFOdxZ7jm3p6SdAKLje3pe55sH1bYs6bYwYx636mMLJO7G2JP7KuOfce9tzyKqvNfa09kKPPnFvXT/ZxmmLneFCM6G2vtyrWZ1vBaDh0/kFlWwX3NVpdo/0t7262qszrAm748S0IWvlb6q2OEV7TH260KmICS2BNmVXf2TGGUU+H9L64wypcGQ17qSYAVlkth7sSbMM1zn1M5KSCoqPX6mgos/IHfykjYbwqNLwSGH9QNFvfWxEJyva240aw7Q5VWQWrosfa3ExozDbHqvEAJ2c4OfYIfOMNiFEExcni1pX2SdjhlqH61a0bmxOcb4wUFB29HVb9lvyhvwVuvZFoOw7znlUmTKZGA+ZKU7/tNXWMe3LorbP6rY66wsEvy0YcqRUnjaA4/X3lK18580cxjc4VXVxr1TpzNyeex9UxyUFxxHO/CTTq+dmEsUfDN/XukorB4DWcO6K/CWe12+y5wtOtinb3qQSc4GaOvW9lhTlPdgujjnZbjbe7IfJEgdM9Bx199Gxbl7VjhXm/McwmMJ0QFM8KbutazAT2AM4cBEVg8hEUMRV6G/Kd+rzgmd7B+5mPjHD2RVAcm/YK5wq4/IZRvsw366SbddLvMVHSvT9ya260tXVoGrbhIsHO/pJv1IaQMQfF6L+NwKgBdro5Z/soTjfOBM4Ll6l8z/ChFsJPVKmqx/zTXLF4+ITTAAAAmABh1T9sjwpRoMwrZ2nWilwVmkdNT4ciIyyPYuDVBpXnpkX6NqakKWtDtUKJxhvs61TD1nVatjDF7Qc3VxnXb1T17vBQf+h95aY8RXlP2w9KlRHbX87tx5ezs1OdO4u0LMV9vzuahkaH7gmpekNOzHukKC24TuW7Oof6ervbybjTftCgvMvt9XJUF9tXcSzbOaEBhZ6qMPteqNwVI/Unj6zTrnTlLTURcVG2Cpabt380pJZEI5AZA075aNOw+RVcbWK8b7a6Dyf6QYxf5N9DqyqeCnn6rk9nBMVpwndlnoJHQioNpiljbZEqt1eaW5HWBeZq7k110soKVd9yykPDAAAAIBF71Pbd5pzs9mwF7UyTnKHM233S7mo1jDaoTWuZcpbmqKonQ/nbKlS4VGp7cKOWpWepen9MpHi7VeUr0pRzZ0jJV+arwqxbURyU2qu1MXOugve6w9Zckm6eK1HuIvtBpgrs9balu6MyR4Tvy1fwtib5bjTP3ZiuWampzvMDJmRmpCzTRhPmfCuK3PfI0qw3alSanabMu9sjIedCvzLNcwUr7Afpyr3dfo9M+S+0H49jOyfSZ46pPcDi+qAWjzRl2kCLQo+adVYUKNv5zHbIyzRJsVx1uxNF0lnyzbM/bYOqHjIBeYQd8d9YL6u7Q1UrY4/cKbD/PRSb3bq7Lm7gyWnMbVnEdNDdYtXG9p+x+8QszbfK6lqs7qPuOgDOOFx6Ckw+Lj3FZGtL1DdutMsgo5eemltgS4tnEL/eve4ghzH98roeCjrndoXPxW3prWarcF6qFVw5NHjKiJeeDr5nulWyN36P3H5+vlyrNmYQF8dbLVaJMzBiodUc87LEl56Ofzsj6X+u0KwrK/vxkTtPRS/x9Vyaerjeyrc/50h9DN+odwcos2/2uCCFVlVdo9UW7h1fH8JxXHpq63o80g/evjT5bECL4nTiCyh38w41v9ztTBpvKgl1hHaoZHVAvhGb1gEAAHBq2hWqa5cW5SnotGq5opdBjtaKtKhC1ZsDg9Os2WZ9olBldmvkvgo17YuU9fTYM7amKOXSuKa1C4OqONCh5mcKxj6tmNnPnE/EbWd/i0KzU+XfsFG5c9yyqAv9Sptv3wmr50StYRO1HaPzFfszS4vnj9R5qk+hZyOX+2YvjTmCl2Qqt9gsR2rNvSxbtS+3qGK13ZIaVuujldqYm6XF/tmaaV/Ou7Zcdfsm5pLTWP75i51l/Ssnuhh5eiAoAgAAAKMY2FOvChNIMm/Njgtr7mWQqlHNsyOEg5UZCQJeshYHcsyyR6GXI69L/WiBCTXtKlqxTOu2m+C5P6yB+Dmhxypggpx7d9CiAjWGOtRlQqsG+tTX06nWPU2qu79UG6/PVqnT53EMJmo7JgR2H7Avp82Wf6SrPw/Wq+bRmMt9ByUrY0WJc7xG7BN4SUCFdR3q7u9VR6hWVcX5Ci6w38gOjqXKC6Qo49amE/YvHZfL/M685z2dJihHSqY1giIAAAAwogG17C53Tvyb1s51B24Zus1d2+Ss1XRfQ8LJ77PnJ05Bsy5NcZahnkikmLWiQg12P8CekGo25Skrfa5mXmC3fhWpZnd4HAPEGCmzPS2Yg460qtIeVGfmbM1OSVNGMEt5t9YodGS2/LEtpScyIdsZUF+01XGEK+PCe0xgNsueu5dpZtxxnxmM/Ex67m5QaLSDkzxLqUtzVbDNvSrvrS61PFKooPmxtN6fpY0PT0LrX2Q0nWmPoAgAAACM5EiT6rab5byAgsuDCW+Beeb5/bUKjTaozQklK1DcqC47yNRVqXBNQH73ssl1mXOVelPdqbV+mc+xcWGGinYOKKN4h+pDberq7VX/UbsrU43ynUtGx2CitnNC7Wp4ICT5UhMec+fmtBBWq2HPOGL0hX4F1lSo+dkyp6W36YHEAR8ERQAAAGBEPc/Xyu4ll72lQc3PNSe8Nd1TYNZIfBlkw6HEFyH2He52ltlz4loc7SCzukAVj7Soy+pXd+sOFSwx+/FEoWoSTJM2VuFdlao2uxJ8oFH12/KVvTRd/lmzlDzOcS4majt2MJ51iXs30SW2+5qcy319G2oSHnPn9kSRE/ZqHq4fDNE9z25UWkqSlp2opfCjQdkX/2r/wNhGaB2P5JGGcJ1eCIoAAABAQmE1PtFgltnKuTLxJaS2WcuznTkVEw5qs7dNne7dIQNqeb7aLNOVsdDuTdipmtxlyphfpJAntSTLtyRfhRucnm/q7BnXBagekcFyTMBLT3WWHkdaFBpj38KJ2o49jUXKfDvmNSg8LEsPKPRMlfnEPm1cHnDLEnAHE4od1MZ3uV/JZnuhR+rU+nakLKGDHWqxlyt8ztQhE+LNsPk0diOof+K2eRoRFAEAAIBE9jeoerdZrspR8LJIUULRORUTDWrzfJnKnvCW9dll95s7q4qU5/TpS9Xi9F61HqxU9c74lrCwWp+144cJlanx8aNbvWPMjj5f0FnWN7V6W9COhVV3W4HTappYWN0x4ffktzNc6oLItqID+gyKzq/o26jgErcsoehgQjGtuYvyVHqjOU77SpWdW66mV4cfoL79ddp44zo1mThXsD5n+MA/Jyl8oM1Z5n00QYiehgiKAAAAQALtz9c6/deyrwueoIUoWRnL85114ge1Cd4YVPimuZqbuVGl2ytVlJum1GvK1TovX/Xbcge3m76+WmUmFDWsHVq3crsJkgszlPe0FNhSrYLBgWJ88i+0X2lec1upWa8pQaull39FgXLNS9q3Zigtuv1NeUq7fK4K38xX1WY7tDUo/GZkfZt/nt2SaULYnUXmPWrUagLjyWxnJMkfC8q+aDfU2u4ZrKdvjwnoZunbENQo7YkO/5XZsqPiUGuuT9kPNKlqlV89z5YqK3W2klLStOyaZc4tY36SZqfnqXqfT5n3NKliZcJhf05Cnzpb7UBfoODHzo5LT5lwHwAmGRPuA5OPCfcx4fqbrRJn0vZMa8cBt2w0g+v7rLJW89id/D67rtvq76y1ClemWiZfWZoXsPK31FsdieZk7+2w6rfkW8EFvshE7/Zk8asKrKqmruETxR9usSpWu9u0J8W3J7+PTri/xTMN/5DuZqtiTcDyO6+R5V+Sb5XVtVjdR4cmvw8+FDOF/VsdVm1x5uD6JXvd8vFuZ0T9VvPt9mfNt+oPu0VWl7Vjhb1dn1USGsv0+NH1I8c6VndrrVWxPjvmeMryLQha+cU7rMYDY5gUfzwT7vc2Wib0Wr7bm8c3qf8ZLMn+nzkAAIBJUltbqxtuuEEmKKq42J4hGMBES0tL0+uvv67f/e53bgmAaeFgjbLmr5Me6VLjmom6CHTq9e1ap9nZHapob1HheKYaOYNx6SkAAACA02NengqLfSPOQzk9tKtmW418xWUxlwdPfwRFAAAAAKdJsoKbalTQU6TqXSc/quvp1PdsjSoO5ar61qD5NGcPgiIAAACA0+eSTJU9VKDGDWUKjTalxZno7VZV3Fmv4H2Vyh5tZNxpiKAIAAAA4LSatbJK3d0VCl7oFkwXFwZU1t6t2lX2KLRnF4IiAAAAAMCDoAgAAAAA8CAoAgAAAAA8CIoAAAAAAA+CIgAAAADAg6AIAAAAAPAgKAIAAAAAPAiKAAAAAAAPgiIAAAAAwIOgCAAAAADwICgCAAAAADwIigAAAAAAD4IiAAAAAMCDoAgAk+yCCy5wlkePHnWWACae/fsV/V0DAJw6giIATLKLL77YWR4+fNhZAph49u/XJZdc4j4CAJwqgiIATDK/3+8sDxw44CwBTKxf/OIX+q//+i/NmzfPLQEAnCqCIgBMsg984AN673vfqxdffNEtATCR9u3b5yzT09OdJQDg1BEUAWAKBINB/epXv9KPfvQjtwTARPne977nLK+66ipnCQA4dQRFAJgC1157rbP85je/6SwBTIzjx4/rW9/6li666CJlZWW5pQCAU0VQBIApkJub61x++vDDD+vIkSNuKYBTVVVVpd7eXn3+859XUlKSWwoAOFUERQCYAjNmzNDf/d3f6fe//73KysrcUgCnYmBgQNu2bXPub9iwwVkCACYGQREApsg//MM/6E//9E/1f/7P/1Fzc7NbCuBkFRYW6uc//7mKior0Z3/2Z24pAGAiJFmGex8AMMmefvppXX/99c5IqP/6r/+qP/mTP3GfATAeO3bs0C233KLU1FT95Cc/YbJ9AJhgtCgCwBRatWqViouL9frrr+tzn/uc3nrrLfcZAGNlD15jh0Tb17/+dUIiAEwCgiIATDG7T9VNN93kTJWxbNkyvfbaa+4zAE7EHhDK/sLFVldXpyuvvNK5DwCYWARFADgNvvGNbzgtIvYk/B/72Mf06KOPus8ASOTtt9/W//7f/1tf+MIXnMd2SFy9erVzHwAw8QiKAHCaPPTQQ/ra176m//7v/9batWt1zTXXaPfu3e6zAGz2yKaVlZVOv177MtMFCxY4rfGERACYXAxmAwCn2b/9279p8+bNeu6555zH9omwPUH/0qVLtXjxYl188cVOOXCuOHjwoH784x87vxN2f8Tf/va3TvmXv/xllZeXO9PNAAAmF0ERAM4QTU1NTivjd77zHbck4qKLLtK73/1uJhPHWe/YsWM6cuSIjh496pZIf/zHf6ybb75Z69evl9/vd0sBAJONoAgAZ5hf/vKXTktKa2ur/vM//1NvvPGGMzoq1TXOdueff77e+973OpeZLlq0SJ/85Cf1qU99yn0WADCVCIoAAAAAAA8u8gcAAAAAeBAUAQAAAAAeBEUAAAAAgAdBEQAAAADgQVAEAAAAAHgQFAEAAAAAHgRFAAAAAIAHQREAAAAA4EFQBAAAAAB4EBQBAAAAAB4ERQAAAACAB0ERAAAAAOBBUAQAAAAAeBAUAQAAAAAeBEUAAAAAgAdBEQAAAADgQVAEAAAAAHgQFAEAAAAAHgRFAAAAAIAHQREAAAAA4EFQBAAAAAB4EBQBAAAAAB4ERQAAAACAB0ERAAAAAOBBUAQAAAAAeBAUAQAAAAAeBEUAAAAAgAdBEQAAAADgQVAEAAAAAHgQFAEAAAAAHgRFAAAAAIAHQREAAAAA4EFQBAAAAAB4EBQBAAAAAB4ERQAAAACAB0ERAAAAAOBBUAQAAAAAeBAUAQAAAAAeBEUAAAAAgAdBEQAAAADgQVAEAAAAAHgQFAEAAAAAHgRFAAAAAIAHQREAAAAA4EFQBAAAAAB4EBQBAAAAAB4ERQAAAACAB0ERAAAAAOBBUAQAAAAAeBAUAQAAAAAeBEUAAAAAgAdBEQAAAADgQVAEAAAAAHgQFAEAAAAAHgRFAAAAAIAHQREAAAAA4EFQBAAAAADEkP5/RBs8cjwpJH4AAAAASUVORK5CYII=;" parent="1" vertex="1">
          <mxGeometry x="41.00454545454545" y="-1116" width="906" height="602" as="geometry" />
        </mxCell>
        <mxCell id="2qJ_zD_mH2lqqATOmTnX-2" value="" style="rounded=1;whiteSpace=wrap;html=1;" parent="1" vertex="1">
          <mxGeometry x="388" y="-1064" width="219" height="116" as="geometry" />
        </mxCell>
        <mxCell id="2qJ_zD_mH2lqqATOmTnX-3" value="&lt;font style=&quot;font-size: 18px;&quot;&gt;Yacc&lt;/font&gt;" style="text;html=1;align=center;verticalAlign=middle;whiteSpace=wrap;rounded=0;" parent="1" vertex="1">
          <mxGeometry x="452.5" y="-1027.5" width="83" height="43" as="geometry" />
        </mxCell>
        <mxCell id="pb4NzmN6sPk17NqO4rly-5" value="" style="edgeStyle=orthogonalEdgeStyle;rounded=0;orthogonalLoop=1;jettySize=auto;html=1;" edge="1" parent="1" source="pb4NzmN6sPk17NqO4rly-1" target="pb4NzmN6sPk17NqO4rly-2">
          <mxGeometry relative="1" as="geometry" />
        </mxCell>
        <mxCell id="pb4NzmN6sPk17NqO4rly-1" value="Início" style="ellipse;whiteSpace=wrap;html=1;" vertex="1" parent="1">
          <mxGeometry x="1718" y="-893" width="120" height="80" as="geometry" />
        </mxCell>
        <mxCell id="pb4NzmN6sPk17NqO4rly-4" value="" style="edgeStyle=orthogonalEdgeStyle;rounded=0;orthogonalLoop=1;jettySize=auto;html=1;" edge="1" parent="1" source="pb4NzmN6sPk17NqO4rly-2" target="pb4NzmN6sPk17NqO4rly-3">
          <mxGeometry relative="1" as="geometry" />
        </mxCell>
        <mxCell id="pb4NzmN6sPk17NqO4rly-7" value="" style="edgeStyle=orthogonalEdgeStyle;rounded=0;orthogonalLoop=1;jettySize=auto;html=1;" edge="1" parent="1" source="pb4NzmN6sPk17NqO4rly-2" target="pb4NzmN6sPk17NqO4rly-6">
          <mxGeometry relative="1" as="geometry" />
        </mxCell>
        <mxCell id="pb4NzmN6sPk17NqO4rly-2" value="Nó&lt;div&gt;==&lt;/div&gt;&lt;div&gt;NULL&amp;nbsp;&lt;span style=&quot;background-color: initial;&quot;&gt;?&lt;/span&gt;&lt;/div&gt;" style="rhombus;whiteSpace=wrap;html=1;" vertex="1" parent="1">
          <mxGeometry x="1721.5" y="-760" width="113" height="82" as="geometry" />
        </mxCell>
        <mxCell id="pb4NzmN6sPk17NqO4rly-3" value="retorna 0" style="rounded=0;whiteSpace=wrap;html=1;" vertex="1" parent="1">
          <mxGeometry x="1929" y="-749" width="120" height="60" as="geometry" />
        </mxCell>
        <mxCell id="pb4NzmN6sPk17NqO4rly-9" value="" style="edgeStyle=orthogonalEdgeStyle;rounded=0;orthogonalLoop=1;jettySize=auto;html=1;" edge="1" parent="1" source="pb4NzmN6sPk17NqO4rly-6" target="pb4NzmN6sPk17NqO4rly-8">
          <mxGeometry relative="1" as="geometry" />
        </mxCell>
        <mxCell id="pb4NzmN6sPk17NqO4rly-6" value="Verificação Semântica" style="rounded=0;whiteSpace=wrap;html=1;" vertex="1" parent="1">
          <mxGeometry x="1718" y="-625" width="120" height="60" as="geometry" />
        </mxCell>
        <mxCell id="pb4NzmN6sPk17NqO4rly-11" value="" style="edgeStyle=orthogonalEdgeStyle;rounded=0;orthogonalLoop=1;jettySize=auto;html=1;" edge="1" parent="1" source="pb4NzmN6sPk17NqO4rly-8" target="pb4NzmN6sPk17NqO4rly-10">
          <mxGeometry relative="1" as="geometry" />
        </mxCell>
        <mxCell id="pb4NzmN6sPk17NqO4rly-16" value="" style="edgeStyle=orthogonalEdgeStyle;rounded=0;orthogonalLoop=1;jettySize=auto;html=1;" edge="1" parent="1" source="pb4NzmN6sPk17NqO4rly-8" target="pb4NzmN6sPk17NqO4rly-15">
          <mxGeometry relative="1" as="geometry" />
        </mxCell>
        <mxCell id="pb4NzmN6sPk17NqO4rly-8" value="&lt;span style=&quot;background-color: initial;&quot;&gt;Erro semântico ?&lt;/span&gt;" style="rhombus;whiteSpace=wrap;html=1;" vertex="1" parent="1">
          <mxGeometry x="1721.5" y="-514" width="113" height="82" as="geometry" />
        </mxCell>
        <mxCell id="pb4NzmN6sPk17NqO4rly-10" value="retorna 1" style="rounded=0;whiteSpace=wrap;html=1;" vertex="1" parent="1">
          <mxGeometry x="1929" y="-503" width="120" height="60" as="geometry" />
        </mxCell>
        <mxCell id="pb4NzmN6sPk17NqO4rly-12" value="SIM" style="text;html=1;align=center;verticalAlign=middle;whiteSpace=wrap;rounded=0;" vertex="1" parent="1">
          <mxGeometry x="1852" y="-503" width="60" height="30" as="geometry" />
        </mxCell>
        <mxCell id="pb4NzmN6sPk17NqO4rly-13" value="SIM" style="text;html=1;align=center;verticalAlign=middle;whiteSpace=wrap;rounded=0;" vertex="1" parent="1">
          <mxGeometry x="1852" y="-749" width="60" height="30" as="geometry" />
        </mxCell>
        <mxCell id="pb4NzmN6sPk17NqO4rly-14" value="NÃO" style="text;html=1;align=center;verticalAlign=middle;whiteSpace=wrap;rounded=0;" vertex="1" parent="1">
          <mxGeometry x="1778" y="-672" width="60" height="30" as="geometry" />
        </mxCell>
        <mxCell id="pb4NzmN6sPk17NqO4rly-18" style="edgeStyle=orthogonalEdgeStyle;rounded=0;orthogonalLoop=1;jettySize=auto;html=1;exitX=0.5;exitY=1;exitDx=0;exitDy=0;" edge="1" parent="1" source="pb4NzmN6sPk17NqO4rly-15">
          <mxGeometry relative="1" as="geometry">
            <mxPoint x="1778.3333333333335" y="-789.6666666666665" as="targetPoint" />
            <Array as="points">
              <mxPoint x="1778" y="-275" />
              <mxPoint x="1613" y="-275" />
              <mxPoint x="1613" y="-790" />
            </Array>
          </mxGeometry>
        </mxCell>
        <mxCell id="pb4NzmN6sPk17NqO4rly-15" value="Para cada filho do nó" style="rounded=0;whiteSpace=wrap;html=1;" vertex="1" parent="1">
          <mxGeometry x="1718" y="-381" width="120" height="60" as="geometry" />
        </mxCell>
        <mxCell id="pb4NzmN6sPk17NqO4rly-17" value="NÃO" style="text;html=1;align=center;verticalAlign=middle;whiteSpace=wrap;rounded=0;" vertex="1" parent="1">
          <mxGeometry x="1778" y="-428" width="60" height="30" as="geometry" />
        </mxCell>
        <mxCell id="pb4NzmN6sPk17NqO4rly-19" value="" style="edgeStyle=orthogonalEdgeStyle;rounded=0;orthogonalLoop=1;jettySize=auto;html=1;" edge="1" parent="1" source="pb4NzmN6sPk17NqO4rly-20" target="pb4NzmN6sPk17NqO4rly-23">
          <mxGeometry relative="1" as="geometry" />
        </mxCell>
        <mxCell id="pb4NzmN6sPk17NqO4rly-20" value="Início" style="ellipse;whiteSpace=wrap;html=1;" vertex="1" parent="1">
          <mxGeometry x="2823" y="-864" width="120" height="80" as="geometry" />
        </mxCell>
        <mxCell id="pb4NzmN6sPk17NqO4rly-21" value="" style="edgeStyle=orthogonalEdgeStyle;rounded=0;orthogonalLoop=1;jettySize=auto;html=1;" edge="1" parent="1" source="pb4NzmN6sPk17NqO4rly-23" target="pb4NzmN6sPk17NqO4rly-24">
          <mxGeometry relative="1" as="geometry" />
        </mxCell>
        <mxCell id="pb4NzmN6sPk17NqO4rly-22" value="" style="edgeStyle=orthogonalEdgeStyle;rounded=0;orthogonalLoop=1;jettySize=auto;html=1;" edge="1" parent="1" source="pb4NzmN6sPk17NqO4rly-23">
          <mxGeometry relative="1" as="geometry">
            <mxPoint x="2883.000000000001" y="-596" as="targetPoint" />
          </mxGeometry>
        </mxCell>
        <mxCell id="pb4NzmN6sPk17NqO4rly-23" value="&lt;span style=&quot;background-color: initial;&quot;&gt;Label está no mapa&amp;nbsp;&lt;/span&gt;&lt;span style=&quot;background-color: initial;&quot;&gt;?&lt;/span&gt;" style="rhombus;whiteSpace=wrap;html=1;" vertex="1" parent="1">
          <mxGeometry x="2826.5" y="-731" width="113" height="82" as="geometry" />
        </mxCell>
        <mxCell id="pb4NzmN6sPk17NqO4rly-24" value="retorna&amp;nbsp;" style="rounded=0;whiteSpace=wrap;html=1;" vertex="1" parent="1">
          <mxGeometry x="3034" y="-720" width="120" height="60" as="geometry" />
        </mxCell>
        <mxCell id="pb4NzmN6sPk17NqO4rly-25" value="" style="edgeStyle=orthogonalEdgeStyle;rounded=0;orthogonalLoop=1;jettySize=auto;html=1;" edge="1" parent="1" target="pb4NzmN6sPk17NqO4rly-29">
          <mxGeometry relative="1" as="geometry">
            <mxPoint x="2883" y="-536" as="sourcePoint" />
          </mxGeometry>
        </mxCell>
        <mxCell id="pb4NzmN6sPk17NqO4rly-27" value="" style="edgeStyle=orthogonalEdgeStyle;rounded=0;orthogonalLoop=1;jettySize=auto;html=1;" edge="1" parent="1" source="pb4NzmN6sPk17NqO4rly-29" target="pb4NzmN6sPk17NqO4rly-30">
          <mxGeometry relative="1" as="geometry" />
        </mxCell>
        <mxCell id="pb4NzmN6sPk17NqO4rly-28" value="" style="edgeStyle=orthogonalEdgeStyle;rounded=0;orthogonalLoop=1;jettySize=auto;html=1;" edge="1" parent="1" source="pb4NzmN6sPk17NqO4rly-29">
          <mxGeometry relative="1" as="geometry">
            <mxPoint x="2883.000000000001" y="-352" as="targetPoint" />
          </mxGeometry>
        </mxCell>
        <mxCell id="pb4NzmN6sPk17NqO4rly-29" value="&lt;span style=&quot;background-color: initial;&quot;&gt;Nó tem filhos ?&lt;/span&gt;" style="rhombus;whiteSpace=wrap;html=1;" vertex="1" parent="1">
          <mxGeometry x="2826.5" y="-485" width="113" height="82" as="geometry" />
        </mxCell>
        <mxCell id="pb4NzmN6sPk17NqO4rly-30" value="retorna&amp;nbsp;" style="rounded=0;whiteSpace=wrap;html=1;" vertex="1" parent="1">
          <mxGeometry x="3034" y="-474" width="120" height="60" as="geometry" />
        </mxCell>
        <mxCell id="pb4NzmN6sPk17NqO4rly-31" value="NÃO" style="text;html=1;align=center;verticalAlign=middle;whiteSpace=wrap;rounded=0;" vertex="1" parent="1">
          <mxGeometry x="2957" y="-474" width="60" height="30" as="geometry" />
        </mxCell>
        <mxCell id="pb4NzmN6sPk17NqO4rly-32" value="NÃO" style="text;html=1;align=center;verticalAlign=middle;whiteSpace=wrap;rounded=0;" vertex="1" parent="1">
          <mxGeometry x="2957" y="-720" width="60" height="30" as="geometry" />
        </mxCell>
        <mxCell id="pb4NzmN6sPk17NqO4rly-33" value="SIM" style="text;html=1;align=center;verticalAlign=middle;whiteSpace=wrap;rounded=0;" vertex="1" parent="1">
          <mxGeometry x="2883" y="-643" width="60" height="30" as="geometry" />
        </mxCell>
        <mxCell id="pb4NzmN6sPk17NqO4rly-36" value="SIM" style="text;html=1;align=center;verticalAlign=middle;whiteSpace=wrap;rounded=0;" vertex="1" parent="1">
          <mxGeometry x="2883" y="-399" width="60" height="30" as="geometry" />
        </mxCell>
        <mxCell id="pb4NzmN6sPk17NqO4rly-37" value="Função de Tradução" style="shape=process;whiteSpace=wrap;html=1;backgroundOutline=1;" vertex="1" parent="1">
          <mxGeometry x="2823" y="-596" width="120" height="60" as="geometry" />
        </mxCell>
        <mxCell id="pb4NzmN6sPk17NqO4rly-40" style="edgeStyle=orthogonalEdgeStyle;rounded=0;orthogonalLoop=1;jettySize=auto;html=1;exitX=0.5;exitY=1;exitDx=0;exitDy=0;" edge="1" parent="1" source="pb4NzmN6sPk17NqO4rly-38">
          <mxGeometry relative="1" as="geometry">
            <mxPoint x="2883" y="-515.5" as="targetPoint" />
            <Array as="points">
              <mxPoint x="2883" y="-250" />
              <mxPoint x="2742" y="-250" />
              <mxPoint x="2742" y="-515" />
            </Array>
          </mxGeometry>
        </mxCell>
        <mxCell id="pb4NzmN6sPk17NqO4rly-38" value="Função de Tradução" style="shape=process;whiteSpace=wrap;html=1;backgroundOutline=1;" vertex="1" parent="1">
          <mxGeometry x="2823" y="-350" width="120" height="60" as="geometry" />
        </mxCell>
      </root>
    </mxGraphModel>
  </diagram>
</mxfile>
